<svg width="1440" height="549" viewBox="0 0 1440 549" fill="none" xmlns="http://www.w3.org/2000/svg">
<path d="M0 0.380859L92.9835 72.1348C149.962 116.104 230.066 113.702 284.307 66.3959C330.153 26.4113 395.53 17.875 450.106 44.7474L466.208 52.6761C515.143 76.7706 572.599 76.2577 621.095 51.2934L627.896 47.7925C683.959 18.9334 751.731 25.6062 801.088 64.8449C860.022 111.696 943.613 111.243 1002.04 63.7546L1005.49 60.9466C1051.58 23.4807 1114.19 13.5151 1169.63 34.8176L1188 41.8757C1234.04 59.5611 1284.98 59.6083 1331.05 42.0084L1440 0.380859V549.381H0V0.380859Z" fill="url(#paint0_linear_423_30019)"/>
<defs>
<linearGradient id="paint0_linear_423_30019" x1="58.3784" y1="274.881" x2="1332.97" y2="274.881" gradientUnits="userSpaceOnUse">
<stop stop-color="#D33232"/>
<stop offset="1" stop-color="#B60000"/>
</linearGradient>
</defs>
</svg>
