<svg width="18" height="18" viewBox="0 0 18 18" fill="none" xmlns="http://www.w3.org/2000/svg">
    <path d="M6 8L9 11L17 3" stroke="url(#paint0_linear_423_35237)" stroke-linecap="round" stroke-linejoin="round"/>
    <path d="M6 8L9 11L17 3" stroke="black" stroke-opacity="0.2" stroke-linecap="round" stroke-linejoin="round"/>
    <path d="M17 9V15C17 15.5304 16.7893 16.0391 16.4142 16.4142C16.0391 16.7893 15.5304 17 15 17H3C2.46957 17 1.96086 16.7893 1.58579 16.4142C1.21071 16.0391 1 15.5304 1 15V3C1 2.46957 1.21071 1.96086 1.58579 1.58579C1.96086 1.21071 2.46957 1 3 1H12" stroke="url(#paint1_linear_423_35237)" stroke-linecap="round" stroke-linejoin="round"/>
    <path d="M17 9V15C17 15.5304 16.7893 16.0391 16.4142 16.4142C16.0391 16.7893 15.5304 17 15 17H3C2.46957 17 1.96086 16.7893 1.58579 16.4142C1.21071 16.0391 1 15.5304 1 15V3C1 2.46957 1.21071 1.96086 1.58579 1.58579C1.96086 1.21071 2.46957 1 3 1H12" stroke="black" stroke-opacity="0.2" stroke-linecap="round" stroke-linejoin="round"/>
    <defs>
        <linearGradient id="paint0_linear_423_35237" x1="6.81053" y1="3.98233" x2="16.6377" y2="4.87702" gradientUnits="userSpaceOnUse">
            <stop stop-color="#00AFB7"/>
            <stop offset="1" stop-color="#25B578"/>
        </linearGradient>
        <linearGradient id="paint1_linear_423_35237" x1="2.17895" y1="2.96465" x2="16.5286" y2="3.91478" gradientUnits="userSpaceOnUse">
            <stop stop-color="#00AFB7"/>
            <stop offset="1" stop-color="#25B578"/>
        </linearGradient>
    </defs>
</svg>
