<svg width="52" height="175" viewBox="0 0 52 175" fill="none" xmlns="http://www.w3.org/2000/svg">
<path d="M32 -7.62939e-06C43.0457 -7.62939e-06 52 8.9543 52 20L52 175H3.09944e-06L3.09944e-06 -7.62939e-06L32 -7.62939e-06Z" fill="url(#paint0_linear_24_742)"/>
<path d="M24.8643 77.5195V73.502L27.0771 73.4805V76.8535C27.0771 77.4479 27.1523 77.9349 27.3027 78.3145C27.4603 78.694 27.6859 78.9769 27.9795 79.1631C28.2803 79.3564 28.6455 79.4531 29.0752 79.4531C29.5622 79.4531 29.9561 79.36 30.2568 79.1738C30.5576 78.9948 30.776 78.7119 30.9121 78.3252C31.0482 77.9456 31.1162 77.4551 31.1162 76.8535V74.6191H18V71.3965H33.6406V76.8535C33.6406 77.763 33.5547 78.5758 33.3828 79.292C33.2109 80.0153 32.9495 80.6276 32.5986 81.1289C32.2477 81.6302 31.8037 82.0133 31.2666 82.2783C30.7367 82.5433 30.1064 82.6758 29.376 82.6758C28.7314 82.6758 28.137 82.529 27.5928 82.2354C27.0485 81.9489 26.6045 81.4941 26.2607 80.8711C25.917 80.2552 25.7272 79.4495 25.6914 78.4541L24.8643 77.5195ZM18 77.3799V72.6211L20.5137 73.8779V77.3799C20.5137 77.9456 20.6032 78.4076 20.7822 78.7656C20.9684 79.1237 21.2191 79.3887 21.5342 79.5605C21.8493 79.7324 22.2109 79.8184 22.6191 79.8184C23.0775 79.8184 23.4749 79.7396 23.8115 79.582C24.1481 79.4316 24.4059 79.1882 24.585 78.8516C24.7712 78.515 24.8643 78.071 24.8643 77.5195V74.415L27.0771 74.4365V78.3037L26.207 79.0449C26.2214 79.9974 26.0531 80.7637 25.7021 81.3437C25.3584 81.931 24.9108 82.3571 24.3594 82.6221C23.8079 82.8942 23.2171 83.0303 22.5869 83.0303C21.5843 83.0303 20.7393 82.8118 20.0518 82.375C19.3714 81.9382 18.8594 81.2972 18.5156 80.4521C18.1719 79.6143 18 78.5902 18 77.3799ZM20.6211 91.5273H25.7988C26.1712 91.5273 26.4899 91.4665 26.7549 91.3447C27.027 91.223 27.2383 91.0332 27.3887 90.7754C27.5391 90.5247 27.6143 90.1989 27.6143 89.7979C27.6143 89.4541 27.5534 89.1569 27.4316 88.9062C27.3171 88.6556 27.1488 88.4622 26.9268 88.3262C26.7119 88.1901 26.4577 88.1221 26.1641 88.1221V85.0283C26.6582 85.0283 27.1273 85.1429 27.5713 85.3721C28.0153 85.6012 28.4056 85.9342 28.7422 86.3711C29.0859 86.8079 29.3545 87.3271 29.5479 87.9287C29.7412 88.5374 29.8379 89.2178 29.8379 89.9697C29.8379 90.8721 29.6875 91.6742 29.3867 92.376C29.0859 93.0778 28.6348 93.6292 28.0332 94.0303C27.4316 94.4385 26.6797 94.6426 25.7773 94.6426H20.8037C20.1663 94.6426 19.6436 94.682 19.2354 94.7607C18.8343 94.8395 18.4834 94.9541 18.1826 95.1045H18V91.9785C18.3151 91.8281 18.709 91.7135 19.1816 91.6348C19.6615 91.5631 20.1413 91.5273 20.6211 91.5273ZM25.0791 91.9355L23.3281 91.957L23.3281 90.2275C23.3281 89.8193 23.2816 89.4648 23.1885 89.1641C23.0954 88.8633 22.9629 88.6162 22.791 88.4229C22.6263 88.2295 22.4329 88.0863 22.2109 87.9932C21.9889 87.9072 21.7454 87.8643 21.4805 87.8643C21.2155 87.8643 20.9756 87.9251 20.7607 88.0469C20.5531 88.1686 20.3883 88.3441 20.2666 88.5732C20.152 88.8024 20.0947 89.071 20.0947 89.3789C20.0947 89.8444 20.1878 90.249 20.374 90.5928C20.5602 90.9365 20.7894 91.2015 21.0615 91.3877C21.3337 91.5811 21.5915 91.6813 21.835 91.6885L20.5244 92.5049C20.2308 92.3903 19.9264 92.2327 19.6113 92.0322C19.2962 91.8389 18.999 91.5918 18.7197 91.291C18.4476 90.9902 18.222 90.6286 18.043 90.2061C17.8711 89.7835 17.7852 89.2822 17.7852 88.7021C17.7852 87.9645 17.932 87.2949 18.2256 86.6934C18.5264 86.099 18.9382 85.6263 19.4609 85.2754C19.9909 84.9316 20.5924 84.7598 21.2656 84.7598C21.8743 84.7598 22.415 84.8743 22.8877 85.1035C23.3604 85.3327 23.7578 85.6693 24.0801 86.1133C24.4095 86.5645 24.6566 87.1266 24.8213 87.7998C24.9932 88.473 25.0791 89.2536 25.0791 90.1416L25.0791 91.9355ZM21.2119 103.312C21.4339 103.312 21.6344 103.247 21.8135 103.118C21.9925 102.989 22.1572 102.749 22.3076 102.398C22.4652 102.055 22.6084 101.557 22.7373 100.905C22.8662 100.318 23.0273 99.7702 23.2207 99.2617C23.4212 98.7604 23.6611 98.3236 23.9404 97.9512C24.2197 97.5859 24.5492 97.2995 24.9287 97.0918C25.3154 96.8841 25.7559 96.7803 26.25 96.7803C26.737 96.7803 27.1953 96.8841 27.625 97.0918C28.0547 97.3066 28.4342 97.611 28.7637 98.0049C29.1003 98.4059 29.3617 98.8929 29.5479 99.4658C29.7412 100.046 29.8379 100.698 29.8379 101.421C29.8379 102.431 29.6768 103.297 29.3545 104.021C29.0322 104.751 28.5882 105.31 28.0225 105.696C27.4639 106.09 26.8265 106.287 26.1104 106.287V103.193C26.4111 103.193 26.6797 103.129 26.916 103C27.1595 102.878 27.3493 102.685 27.4854 102.42C27.6286 102.162 27.7002 101.826 27.7002 101.41C27.7002 101.066 27.6393 100.769 27.5176 100.519C27.403 100.268 27.2454 100.075 27.0449 99.9385C26.8516 99.8096 26.6367 99.7451 26.4004 99.7451C26.2214 99.7451 26.0602 99.7809 25.917 99.8525C25.7809 99.9313 25.6556 100.057 25.541 100.229C25.4264 100.4 25.319 100.622 25.2188 100.895C25.1257 101.174 25.0397 101.518 24.9609 101.926C24.7891 102.764 24.5635 103.512 24.2842 104.171C24.012 104.83 23.6396 105.353 23.167 105.739C22.7015 106.126 22.0892 106.319 21.3301 106.319C20.8145 106.319 20.3418 106.205 19.9121 105.976C19.4824 105.746 19.1064 105.417 18.7842 104.987C18.4691 104.558 18.222 104.042 18.043 103.44C17.8711 102.846 17.7852 102.176 17.7852 101.432C17.7852 100.35 17.9785 99.4336 18.3652 98.6816C18.752 97.9368 19.2425 97.3711 19.8369 96.9844C20.4385 96.6048 21.0544 96.415 21.6846 96.415V99.3477C21.262 99.362 20.9219 99.4694 20.6641 99.6699C20.4063 99.8776 20.2201 100.139 20.1055 100.454C19.9909 100.776 19.9336 101.124 19.9336 101.496C19.9336 101.897 19.9873 102.23 20.0947 102.495C20.2093 102.76 20.3597 102.961 20.5459 103.097C20.7393 103.24 20.9613 103.312 21.2119 103.312ZM29.623 111.594H18V108.489H29.623V111.594ZM32.6523 108.296C33.1035 108.296 33.4759 108.453 33.7695 108.769C34.0632 109.084 34.21 109.506 34.21 110.036C34.21 110.559 34.0632 110.978 33.7695 111.293C33.4759 111.615 33.1035 111.776 32.6523 111.776C32.2012 111.776 31.8288 111.615 31.5352 111.293C31.2415 110.978 31.0947 110.559 31.0947 110.036C31.0947 109.506 31.2415 109.084 31.5352 108.769C31.8288 108.453 32.2012 108.296 32.6523 108.296ZM20.2021 118.952C20.2021 119.332 20.2738 119.668 20.417 119.962C20.5674 120.256 20.7751 120.485 21.04 120.649C21.3122 120.821 21.6309 120.911 21.9961 120.918V123.829C21.1797 123.822 20.4528 123.604 19.8154 123.174C19.1852 122.744 18.6875 122.168 18.3223 121.444C17.9642 120.721 17.7852 119.912 17.7852 119.017C17.7852 118.114 17.9355 117.326 18.2363 116.653C18.5371 115.987 18.9525 115.432 19.4824 114.988C20.0195 114.544 20.6426 114.211 21.3516 113.989C22.0677 113.767 22.834 113.656 23.6504 113.656H23.9619C24.7855 113.656 25.5518 113.767 26.2607 113.989C26.9769 114.211 27.5999 114.544 28.1299 114.988C28.667 115.432 29.0859 115.987 29.3867 116.653C29.6875 117.319 29.8379 118.1 29.8379 118.995C29.8379 119.948 29.6553 120.782 29.29 121.498C28.9248 122.221 28.402 122.787 27.7217 123.195C27.0485 123.611 26.25 123.822 25.3262 123.829V120.918C25.7129 120.911 26.0638 120.828 26.3789 120.671C26.694 120.521 26.9447 120.298 27.1309 120.005C27.3242 119.718 27.4209 119.364 27.4209 118.941C27.4209 118.49 27.3242 118.121 27.1309 117.835C26.9447 117.548 26.6868 117.326 26.3574 117.169C26.0352 117.011 25.6663 116.9 25.251 116.836C24.8428 116.779 24.4131 116.75 23.9619 116.75H23.6504C23.1992 116.75 22.766 116.779 22.3506 116.836C21.9352 116.893 21.5664 117.001 21.2441 117.158C20.9219 117.323 20.6676 117.548 20.4814 117.835C20.2952 118.121 20.2021 118.494 20.2021 118.952Z" fill="white"/>
<defs>
<linearGradient id="paint0_linear_24_742" x1="26" y1="7.09459" x2="26" y2="161.993" gradientUnits="userSpaceOnUse">
<stop stop-color="#D33232"/>
<stop offset="1" stop-color="#3E2F2F"/>
</linearGradient>
</defs>
</svg>
