<svg width="52" height="176" viewBox="0 0 52 176" fill="none" xmlns="http://www.w3.org/2000/svg">
<path d="M32 0.198296C43.0457 0.198296 52 9.1526 52 20.1983L52 175.198H3.09944e-06L3.09944e-06 0.198296L32 0.198296Z" fill="url(#paint0_linear_24_729)"/>
<path d="M23.5752 77.6856V73.7003H26.0889V77.6856C26.0889 78.3015 26.1891 78.8028 26.3896 79.1895C26.5973 79.5762 26.8838 79.8591 27.249 80.0381C27.6143 80.2172 28.026 80.3067 28.4844 80.3067C28.9499 80.3067 29.3831 80.2172 29.7842 80.0381C30.1852 79.8591 30.5075 79.5762 30.751 79.1895C30.9945 78.8028 31.1162 78.3015 31.1162 77.6856V74.8174H18V71.5948H33.6406V77.6856C33.6406 78.9102 33.4186 79.9594 32.9746 80.8331C32.5378 81.7139 31.9326 82.3871 31.1592 82.8526C30.3857 83.3181 29.5013 83.5508 28.5059 83.5508C27.4961 83.5508 26.6224 83.3181 25.8848 82.8526C25.1471 82.3871 24.5778 81.7139 24.1768 80.8331C23.7757 79.9594 23.5752 78.9102 23.5752 77.6856ZM27.0879 88.6749H18V85.5811H29.623V88.4922L27.0879 88.6749ZM29.6982 92.1768L26.8301 92.1231C26.8516 91.9727 26.8695 91.7901 26.8838 91.5753C26.9053 91.3676 26.916 91.1778 26.916 91.0059C26.916 90.5691 26.8587 90.1895 26.7441 89.8672C26.6367 89.5521 26.4756 89.2872 26.2607 89.0723C26.0459 88.8646 25.7845 88.7071 25.4766 88.5997C25.1686 88.4994 24.8177 88.4421 24.4238 88.4278L24.6172 87.8047C25.3691 87.8047 26.0602 87.8799 26.6904 88.0303C27.3278 88.1807 27.8828 88.3991 28.3555 88.6856C28.8281 88.9792 29.1934 89.3373 29.4512 89.7598C29.709 90.1823 29.8379 90.6657 29.8379 91.21C29.8379 91.3819 29.8236 91.5573 29.7949 91.7364C29.7734 91.9154 29.7412 92.0622 29.6982 92.1768ZM23.6934 92.8213H23.9189C24.7712 92.8213 25.5553 92.9431 26.2715 93.1866C26.9948 93.4301 27.6214 93.7846 28.1514 94.2501C28.6813 94.7156 29.0931 95.2885 29.3867 95.9688C29.6875 96.6491 29.8379 97.4297 29.8379 98.3106C29.8379 99.1915 29.6875 99.9756 29.3867 100.663C29.0931 101.351 28.6813 101.927 28.1514 102.393C27.6214 102.865 26.9948 103.223 26.2715 103.467C25.5553 103.71 24.7712 103.832 23.9189 103.832H23.6934C22.8483 103.832 22.0641 103.71 21.3408 103.467C20.6247 103.223 19.998 102.865 19.4609 102.393C18.931 101.927 18.5192 101.354 18.2256 100.674C17.932 99.9935 17.7852 99.2129 17.7852 98.3321C17.7852 97.4512 17.932 96.667 18.2256 95.9795C18.5192 95.2992 18.931 94.7227 19.4609 94.2501C19.998 93.7846 20.6247 93.4301 21.3408 93.1866C22.0641 92.9431 22.8483 92.8213 23.6934 92.8213ZM23.9189 95.9151H23.6934C23.2064 95.9151 22.7516 95.9581 22.3291 96.044C21.9066 96.1299 21.5342 96.266 21.2119 96.4522C20.8968 96.6456 20.6497 96.8962 20.4707 97.2042C20.2917 97.5121 20.2021 97.8881 20.2021 98.3321C20.2021 98.7618 20.2917 99.1306 20.4707 99.4385C20.6497 99.7465 20.8968 99.9935 21.2119 100.18C21.5342 100.366 21.9066 100.502 22.3291 100.588C22.7516 100.681 23.2064 100.728 23.6934 100.728H23.9189C24.3916 100.728 24.8356 100.681 25.251 100.588C25.6735 100.502 26.0459 100.362 26.3682 100.169C26.6976 99.9828 26.9554 99.7357 27.1416 99.4278C27.3278 99.1198 27.4209 98.7475 27.4209 98.3106C27.4209 97.8738 27.3278 97.5014 27.1416 97.1934C26.9554 96.8926 26.6976 96.6456 26.3682 96.4522C26.0459 96.266 25.6735 96.1299 25.251 96.044C24.8356 95.9581 24.3916 95.9151 23.9189 95.9151Z" fill="white"/>
<defs>
<linearGradient id="paint0_linear_24_729" x1="26" y1="7.29289" x2="26" y2="162.192" gradientUnits="userSpaceOnUse">
<stop stop-color="#D33232"/>
<stop offset="1" stop-color="#3E2F2F"/>
</linearGradient>
</defs>
</svg>
