<svg width="52" height="175" viewBox="0 0 52 175" fill="none" xmlns="http://www.w3.org/2000/svg">
<path d="M32 0C43.0457 0 52 8.9543 52 20L52 175H3.09944e-06L3.09944e-06 0L32 0Z" fill="url(#paint0_linear_24_739)"/>
<path d="M33.6406 57.0332V60.2451H23.3066C22.1035 60.2451 21.0902 59.9873 20.2666 59.4717C19.443 58.9632 18.8236 58.2578 18.4082 57.3555C17.9928 56.4603 17.7852 55.429 17.7852 54.2617C17.7852 53.0944 17.9928 52.056 18.4082 51.1465C18.8236 50.2441 19.443 49.5352 20.2666 49.0195C21.0902 48.5111 22.1035 48.2568 23.3066 48.2568H33.6406V51.4795H23.3066C22.6048 51.4795 22.0319 51.5905 21.5879 51.8125C21.1439 52.0345 20.818 52.3532 20.6104 52.7686C20.4027 53.1911 20.2988 53.6888 20.2988 54.2617C20.2988 54.849 20.4027 55.3467 20.6104 55.7549C20.818 56.1702 21.1439 56.4854 21.5879 56.7002C22.0319 56.9222 22.6048 57.0332 23.3066 57.0332H33.6406ZM27.1416 65.7344H18V62.6406H29.623V65.541L27.1416 65.7344ZM24.2197 65.2832V64.4453C25.0791 64.4453 25.8525 64.5563 26.54 64.7783C27.2347 65.0003 27.8255 65.3118 28.3125 65.7129C28.8066 66.1139 29.1826 66.5902 29.4404 67.1416C29.7054 67.7002 29.8379 68.3232 29.8379 69.0107C29.8379 69.555 29.7591 70.0527 29.6016 70.5039C29.444 70.9551 29.1934 71.3418 28.8496 71.6641C28.5059 71.9935 28.0511 72.2441 27.4854 72.416C26.9196 72.5951 26.2285 72.6846 25.4121 72.6846H18V69.5693H25.4229C25.9385 69.5693 26.3395 69.4977 26.626 69.3545C26.9124 69.2113 27.113 69 27.2275 68.7207C27.3493 68.4486 27.4102 68.112 27.4102 67.7109C27.4102 67.2956 27.3278 66.9339 27.1631 66.626C26.9984 66.3252 26.7692 66.0745 26.4756 65.874C26.1891 65.6807 25.8525 65.5339 25.4658 65.4336C25.0791 65.3333 24.6637 65.2832 24.2197 65.2832ZM34.5 78.3027H18V75.1982H34.5V78.3027ZM29.623 84.125H18V81.0205H29.623V84.125ZM32.6523 80.8271C33.1035 80.8271 33.4759 80.9847 33.7695 81.2998C34.0632 81.6149 34.21 82.0374 34.21 82.5674C34.21 83.0902 34.0632 83.5091 33.7695 83.8242C33.4759 84.1465 33.1035 84.3076 32.6523 84.3076C32.2012 84.3076 31.8288 84.1465 31.5352 83.8242C31.2415 83.5091 31.0947 83.0902 31.0947 82.5674C31.0947 82.0374 31.2415 81.6149 31.5352 81.2998C31.8288 80.9847 32.2012 80.8271 32.6523 80.8271ZM27.2168 89.7754H18V86.6709H29.623V89.582L27.2168 89.7754ZM24.2197 89.3457V88.4863C25.029 88.4863 25.7738 88.583 26.4541 88.7764C27.1416 88.9769 27.736 89.2669 28.2373 89.6465C28.7458 90.0332 29.1396 90.5094 29.4189 91.0752C29.6982 91.6409 29.8379 92.2962 29.8379 93.041C29.8379 93.5566 29.7591 94.0293 29.6016 94.459C29.4512 94.8887 29.2113 95.2575 28.8818 95.5654C28.5596 95.8805 28.137 96.124 27.6143 96.2959C27.0986 96.4678 26.4792 96.5537 25.7559 96.5537H18V93.46H25.4121C25.9421 93.46 26.3503 93.3883 26.6367 93.2451C26.9232 93.1019 27.1237 92.8978 27.2383 92.6328C27.3529 92.375 27.4102 92.0635 27.4102 91.6982C27.4102 91.2972 27.3278 90.9463 27.1631 90.6455C26.9984 90.3519 26.7692 90.1084 26.4756 89.915C26.1891 89.7217 25.8525 89.5784 25.4658 89.4853C25.0791 89.3923 24.6637 89.3457 24.2197 89.3457ZM24.5742 96.2637L24.4346 95.1572C25.1937 95.1572 25.8991 95.2503 26.5508 95.4365C27.2025 95.6299 27.7754 95.9128 28.2695 96.2852C28.7637 96.6647 29.1468 97.1338 29.4189 97.6924C29.6982 98.251 29.8379 98.8955 29.8379 99.626C29.8379 100.185 29.7555 100.693 29.5908 101.151C29.4333 101.61 29.179 102 28.8281 102.322C28.4844 102.652 28.0332 102.902 27.4746 103.074C26.916 103.253 26.2321 103.343 25.4229 103.343H18V100.238H25.4229C25.96 100.238 26.3682 100.167 26.6475 100.023C26.9339 99.8874 27.1309 99.6868 27.2383 99.4219C27.3529 99.1641 27.4102 98.8561 27.4102 98.498C27.4102 98.1256 27.335 97.7998 27.1846 97.5205C27.0413 97.2412 26.8408 97.0085 26.583 96.8223C26.3252 96.6361 26.0244 96.4964 25.6807 96.4033C25.3441 96.3102 24.9753 96.2637 24.5742 96.2637ZM29.623 109.004H18L18 105.899H29.623V109.004ZM32.6523 105.706C33.1035 105.706 33.4759 105.864 33.7695 106.179C34.0632 106.494 34.21 106.916 34.21 107.446C34.21 107.969 34.0632 108.388 33.7695 108.703C33.4759 109.025 33.1035 109.187 32.6523 109.187C32.2012 109.187 31.8288 109.025 31.5352 108.703C31.2415 108.388 31.0947 107.969 31.0947 107.446C31.0947 106.916 31.2415 106.494 31.5352 106.179C31.8288 105.864 32.2012 105.706 32.6523 105.706ZM29.623 117.254H27.4316V110.486H29.623V117.254ZM32.4912 112.162V115.256H21.502C21.1654 115.256 20.9076 115.299 20.7285 115.385C20.5495 115.478 20.4242 115.614 20.3525 115.793C20.2881 115.972 20.2559 116.198 20.2559 116.47C20.2559 116.663 20.263 116.835 20.2773 116.985C20.2988 117.143 20.3203 117.275 20.3418 117.383L18.0645 117.394C17.9785 117.129 17.9105 116.842 17.8604 116.534C17.8102 116.226 17.7852 115.886 17.7852 115.514C17.7852 114.833 17.8962 114.239 18.1182 113.73C18.3473 113.229 18.7126 112.842 19.2139 112.57C19.7152 112.298 20.374 112.162 21.1904 112.162H32.4912ZM17.7852 124.365C17.7852 123.463 17.9284 122.654 18.2148 121.937C18.5085 121.221 18.9131 120.613 19.4287 120.111C19.9443 119.617 20.5423 119.238 21.2227 118.973C21.9102 118.708 22.6406 118.575 23.4141 118.575H23.8438C24.7246 118.575 25.5303 118.701 26.2607 118.951C26.9912 119.202 27.625 119.56 28.1621 120.025C28.6992 120.498 29.111 121.071 29.3975 121.744C29.6911 122.417 29.8379 123.176 29.8379 124.021C29.8379 124.845 29.7018 125.576 29.4297 126.213C29.1576 126.85 28.7708 127.384 28.2695 127.813C27.7682 128.25 27.1667 128.58 26.4648 128.802C25.7702 129.024 24.9967 129.135 24.1445 129.135H22.8555L22.8555 119.896H24.918V126.095H25.1543C25.584 126.095 25.9671 126.016 26.3037 125.858C26.6475 125.708 26.9196 125.479 27.1201 125.171C27.3206 124.863 27.4209 124.469 27.4209 123.989C27.4209 123.581 27.3314 123.23 27.1523 122.937C26.9733 122.643 26.7227 122.403 26.4004 122.217C26.0781 122.038 25.6986 121.902 25.2617 121.809C24.832 121.723 24.3594 121.68 23.8438 121.68H23.4141C22.9486 121.68 22.5189 121.744 22.125 121.873C21.7311 122.009 21.391 122.199 21.1045 122.442C20.818 122.693 20.596 122.994 20.4385 123.345C20.2809 123.703 20.2021 124.107 20.2021 124.559C20.2021 125.117 20.3096 125.636 20.5244 126.116C20.7464 126.603 21.0794 127.022 21.5234 127.373L19.8906 128.877C19.5397 128.633 19.2031 128.3 18.8809 127.878C18.5586 127.463 18.2936 126.961 18.0859 126.374C17.8854 125.787 17.7852 125.117 17.7852 124.365ZM20.5352 137.761H34.5V140.876H18V138.072L20.5352 137.761ZM23.6719 130.413H23.8975C24.7855 130.413 25.5911 130.513 26.3145 130.714C27.0449 130.914 27.6716 131.208 28.1943 131.595C28.7171 131.981 29.1217 132.458 29.4082 133.023C29.6947 133.589 29.8379 134.234 29.8379 134.957C29.8379 135.637 29.6947 136.232 29.4082 136.74C29.1217 137.256 28.7135 137.693 28.1836 138.051C27.6608 138.416 27.0413 138.71 26.3252 138.932C25.6162 139.154 24.8392 139.315 23.9941 139.415H23.5C22.6908 139.315 21.9388 139.154 21.2441 138.932C20.5495 138.71 19.9408 138.416 19.418 138.051C18.9023 137.693 18.5013 137.256 18.2148 136.74C17.9284 136.225 17.7852 135.623 17.7852 134.936C17.7852 134.212 17.932 133.568 18.2256 133.002C18.5192 132.443 18.931 131.971 19.4609 131.584C19.9909 131.204 20.6139 130.914 21.3301 130.714C22.0462 130.513 22.8268 130.413 23.6719 130.413ZM23.8975 133.507H23.6719C23.1921 133.507 22.7445 133.543 22.3291 133.614C21.9137 133.693 21.5449 133.818 21.2227 133.99C20.9076 134.169 20.6605 134.398 20.4814 134.678C20.3096 134.964 20.2236 135.312 20.2236 135.72C20.2236 136.25 20.3418 136.687 20.5781 137.03C20.8216 137.374 21.1546 137.635 21.5771 137.814C21.9997 138.001 22.4867 138.108 23.0381 138.137H24.4453C24.8965 138.115 25.3011 138.051 25.6592 137.943C26.0244 137.843 26.3359 137.693 26.5938 137.492C26.8516 137.299 27.0521 137.055 27.1953 136.762C27.3385 136.475 27.4102 136.135 27.4102 135.741C27.4102 135.34 27.3171 134.996 27.1309 134.71C26.9518 134.423 26.7048 134.191 26.3896 134.012C26.0745 133.84 25.7021 133.711 25.2725 133.625C24.8499 133.546 24.3916 133.507 23.8975 133.507Z" fill="white"/>
<defs>
<linearGradient id="paint0_linear_24_739" x1="26" y1="7.09459" x2="26" y2="161.993" gradientUnits="userSpaceOnUse">
<stop stop-color="#D33232"/>
<stop offset="1" stop-color="#3E2F2F"/>
</linearGradient>
</defs>
</svg>
