<svg width="96" height="96" viewBox="0 0 96 96" fill="none" xmlns="http://www.w3.org/2000/svg">
<g clip-path="url(#clip0_409_28006)">
<path d="M64.821 51.3931C67.169 52.0691 69.517 52.4121 71.801 52.4121C75.328 52.4121 78.271 51.6061 80.553 50.6191C78.353 58.6731 73.068 72.5701 62.54 74.1351C61.565 74.2801 60.766 74.9851 60.5 75.9341L58.199 84.1641C58.005 84.8601 58.12 85.6051 58.517 86.2091C58.914 86.8131 59.552 87.2161 60.267 87.3141C61.044 87.4201 61.836 87.4741 62.621 87.4741C75.258 87.4741 87.773 74.2841 93.054 55.3981C96.154 44.3181 97.063 27.6601 89.4271 17.1751C85.1541 11.3081 78.9201 8.17512 70.8981 7.86212C70.8651 7.86112 70.8331 7.86012 70.8001 7.86012C60.902 7.86012 52.1251 14.5261 49.4551 24.0691C47.8601 29.7741 48.5811 35.7571 51.487 40.9201C54.362 46.0251 59.097 49.7461 64.821 51.3931Z" fill="url(#paint0_linear_409_28006)"/>
<path d="M2.8621 40.9191C5.73709 46.0251 10.4721 49.7461 16.1961 51.3931C18.5441 52.0691 20.8921 52.4121 23.1751 52.4121C26.7021 52.4121 29.6461 51.6061 31.9281 50.6191C29.7281 58.6731 24.4431 72.5701 13.9141 74.1351C12.9391 74.2801 12.1411 74.9851 11.8741 75.9341L9.57309 84.1641C9.37909 84.8601 9.49409 85.6051 9.89109 86.2091C10.2871 86.8131 10.9251 87.2161 11.6411 87.3141C12.4171 87.4201 13.2091 87.4741 13.9951 87.4741C26.6321 87.4741 39.1471 74.2841 44.4291 55.3981C47.5281 44.3181 48.4371 27.6601 40.8001 17.1731C36.5281 11.3071 30.2931 8.17312 22.2721 7.86112C22.2391 7.86012 22.2071 7.85912 22.1731 7.85912C12.2761 7.85912 3.4981 14.5251 0.8281 24.0681C-0.764899 29.7731 -0.0429032 35.7571 2.8621 40.9191Z" fill="url(#paint1_linear_409_28006)"/>
</g>
<defs>
<linearGradient id="paint0_linear_409_28006" x1="93.4392" y1="47.6671" x2="52.0972" y2="47.6671" gradientUnits="userSpaceOnUse">
<stop stop-color="#D33232"/>
<stop offset="1" stop-color="#B60000"/>
</linearGradient>
<linearGradient id="paint1_linear_409_28006" x1="44.8134" y1="47.6666" x2="3.47193" y2="47.6666" gradientUnits="userSpaceOnUse">
<stop stop-color="#D33232"/>
<stop offset="1" stop-color="#B60000"/>
</linearGradient>
<clipPath id="clip0_409_28006">
<rect width="95.333" height="95.332" fill="white" transform="translate(95.333 95.332) rotate(-180)"/>
</clipPath>
</defs>
</svg>
