<svg width="106" height="120" viewBox="0 0 106 120" fill="none" xmlns="http://www.w3.org/2000/svg">
<path d="M98.6777 40.3563C98.5675 40.3563 98.4586 40.3605 98.3505 40.3685C97.8951 40.4025 97.5061 40.0481 97.5061 39.5915V33.5868C97.5061 33.1554 97.1564 32.8057 96.7249 32.8057H75.8721C77.9425 36.513 79.1247 40.7807 79.1247 45.3201V53.9062L79.1979 53.9772C80.1506 54.9028 80.8176 56.0374 81.1605 57.2796H96.7249C97.1564 57.2796 97.5061 56.9299 97.5061 56.4984V50.4939C97.5061 50.0257 97.8869 49.6823 98.354 49.717C98.9172 49.7585 99.5097 49.6952 100.127 49.4784C102.052 48.8022 103.381 47.0423 103.364 45.0023C103.342 42.4329 101.253 40.3563 98.6777 40.3563Z" fill="#FE646F"/>
<path d="M98.6778 40.3563C98.5676 40.3563 98.4586 40.3605 98.3506 40.3685C97.8954 40.4025 97.5061 40.0479 97.5061 39.5915V33.5868C97.5061 33.1556 97.1564 32.8059 96.7252 32.8059H89.1743C89.6058 32.8059 89.9555 33.1556 89.9555 33.5871V39.5918C89.9555 40.0483 90.3448 40.4027 90.8002 40.3687C90.908 40.3608 91.017 40.3565 91.1271 40.3565C93.6605 40.3565 95.7244 42.3668 95.8109 44.8793C95.881 46.9186 94.557 48.7507 92.6419 49.4554C92.1223 49.6467 91.6198 49.7285 91.1372 49.7297C90.4871 49.7311 89.9555 50.2856 89.9555 50.9358V56.4991C89.9555 56.9306 89.6058 57.2803 89.1743 57.2803H96.7252C97.1564 57.2803 97.5061 56.9306 97.5061 56.4993V50.4949C97.5061 50.0266 97.8872 49.6835 98.3541 49.7179C98.937 49.7608 99.5515 49.6915 100.192 49.4561C102.107 48.7518 103.431 46.92 103.361 44.8804C103.275 42.367 101.211 40.3563 98.6778 40.3563Z" fill="#FD4755"/>
<path d="M19.3494 86.7318C22.4331 83.6011 26.5497 81.8369 30.9409 81.764L31.4758 81.7551L31.1153 81.36C28.8641 78.892 27.6243 75.6921 27.6243 72.3494V70.8187H6.7438C6.31231 70.8187 5.96263 71.1684 5.96263 71.5999V77.6043C5.96263 78.0623 5.57122 78.4151 5.11466 78.3813C4.55145 78.3398 3.95895 78.4031 3.34208 78.6199C1.41716 79.2961 0.087546 81.056 0.104655 83.096C0.126218 85.6659 2.21614 87.7425 4.79098 87.7425C4.90114 87.7425 5.01013 87.7383 5.11817 87.7303C5.57356 87.6963 5.96263 88.0507 5.96263 88.5072V94.5119C5.96263 94.9434 6.31231 95.2931 6.7438 95.2931H14.8553C15.4633 92.0772 17.0054 89.1117 19.3494 86.7318Z" fill="#FFE177"/>
<path d="M31.1181 81.363C28.8705 78.8993 27.6243 75.6846 27.6243 72.3494V70.8187H19.8613C20.2928 70.8187 20.6425 71.1684 20.6425 71.5999V77.1635C20.6425 77.8336 21.1905 78.3623 21.8605 78.3696C22.3115 78.3745 22.78 78.4502 23.263 78.6199C24.9827 79.2241 26.2241 80.6939 26.4578 82.455C27.8971 82.0277 29.4016 81.7898 30.9409 81.7643L31.4758 81.7554L31.1181 81.363Z" fill="#FFD15B"/>
<path d="M75.5276 81.5154H75.4769C73.0364 84.1043 69.5796 85.725 65.7492 85.725H60.0426C59.5844 88.9959 56.7694 91.5216 53.3744 91.5216C49.979 91.5216 47.1642 88.9959 46.706 85.725H40.9997C37.1695 85.725 33.7127 84.1043 31.2719 81.5154H31.2213C21.8869 81.5154 14.3198 89.0824 14.3198 98.4169V116.378C14.3198 118.378 15.9412 120 17.9416 120H88.8073C90.8074 120 92.4291 118.379 92.4291 116.378V98.4169C92.4291 89.0824 84.862 81.5154 75.5276 81.5154Z" fill="#99E6FC"/>
<path d="M75.5277 81.5154H75.477C75.073 81.9441 74.6384 82.3434 74.1814 82.7158C80.4181 85.2028 84.8277 91.2928 84.8277 98.4166V120H88.8071C90.8073 120 92.4289 118.379 92.4289 116.378V98.4169C92.4289 89.0824 84.8621 81.5154 75.5277 81.5154Z" fill="#62DBFB"/>
<path d="M53.3745 19.3286C39.0198 19.3286 27.3828 30.9656 27.3828 45.3203V72.3494C27.3828 79.8698 33.4794 85.9664 40.9998 85.9664H46.7448C46.6768 85.5829 46.6391 85.1889 46.6391 84.7863V79.2618C48.7918 80.0992 51.0556 80.5237 53.3743 80.5237C55.693 80.5237 57.9568 80.0995 60.1093 79.2621V84.7865C60.1093 85.1892 60.0718 85.5831 60.0036 85.9666H65.7488C73.2692 85.9666 79.366 79.87 79.366 72.3496V45.3203C79.3662 30.9653 67.7293 19.3286 53.3745 19.3286Z" fill="#D88A55"/>
<path d="M53.3745 19.3286C51.6444 19.3286 49.9541 19.4992 48.3184 19.8217C59.2494 21.9771 67.7143 30.986 69.0613 42.1858C70.8432 43.3188 72.0266 45.3093 72.0266 47.5771V61.8717C72.0266 65.4606 71.0105 68.8113 69.2539 71.6561V72.3494C69.2539 78.3084 65.4247 83.3699 60.0938 85.2164C60.0772 85.4702 60.0477 85.7207 60.0041 85.9666H65.7493C73.2697 85.9666 79.3662 79.87 79.3662 72.3496V45.3203C79.3662 30.9653 67.7293 19.3286 53.3745 19.3286Z" fill="#C57A44"/>
<path d="M74.0816 51.6586H71.7852V61.8717C71.7852 63.5908 71.5433 65.2535 71.1003 66.8332H74.0814C78.2717 66.8332 81.6685 63.4364 81.6685 59.246C81.6688 55.0554 78.2717 51.6586 74.0816 51.6586Z" fill="#F89580"/>
<path d="M53.3748 80.2823C50.9062 80.2823 48.5512 79.7906 46.3979 78.9054V84.7866C46.3979 88.6397 49.5215 91.7632 53.3746 91.7632C57.2277 91.7632 60.3512 88.6397 60.3512 84.7866V78.9054C58.1983 79.7906 55.8433 80.2823 53.3748 80.2823Z" fill="#FFB09E"/>
<path d="M53.3747 80.2823C53.194 80.2823 53.0151 80.2741 52.8356 80.269V84.7866C52.8356 87.2555 51.5519 89.4234 49.6167 90.6633C50.7016 91.3584 51.9904 91.7632 53.3747 91.7632C57.2278 91.7632 60.3513 88.6397 60.3513 84.7866V78.9054C58.1981 79.7906 55.8431 80.2823 53.3747 80.2823Z" fill="#F89580"/>
<path d="M34.9639 61.8717V52.747C34.9639 52.3755 34.9988 52.012 35.0624 51.6586H32.6675C28.4771 51.6586 25.0803 55.0556 25.0803 59.2458C25.0803 63.4361 28.4774 66.8329 32.6675 66.8329H35.6488C35.206 65.2535 34.9639 63.5908 34.9639 61.8717Z" fill="#FFB09E"/>
<path d="M53.3744 80.5238C43.0732 80.5238 34.7224 72.173 34.7224 61.8717V52.7473C34.7224 49.2204 37.5816 46.3612 41.1084 46.3612H52.7719C53.9857 46.3612 55.1276 45.7861 55.8501 44.8111L57.3841 42.7416C58.1067 41.7666 59.2488 41.1914 60.4624 41.1914H65.6402C69.1671 41.1914 72.0262 44.0505 72.0262 47.5774V61.872C72.0265 72.173 63.6757 80.5238 53.3744 80.5238Z" fill="#FFCEBF"/>
<path d="M65.6406 41.1912H63.3076C65.4732 42.2775 66.9606 44.5167 66.9606 47.1047V61.908C66.9606 70.7742 60.9847 78.2398 52.8428 80.5104C53.02 80.5153 53.1962 80.5237 53.3746 80.5237C63.6758 80.5237 72.0266 72.173 72.0266 61.8717V47.5772C72.0266 44.0503 69.1675 41.1912 65.6406 41.1912Z" fill="#FFB09E"/>
<path d="M57.8359 72.6813H48.9135C47.9026 72.6813 47.0833 71.8619 47.0833 70.851V68.5633C47.0833 66.6679 48.6196 65.1316 50.515 65.1316H56.2344C58.1298 65.1316 59.6661 66.6679 59.6661 68.5633V70.851C59.6661 71.8619 58.8465 72.6813 57.8359 72.6813Z" fill="#FE99A0"/>
<path d="M56.2344 65.1316H51.3354C53.2308 65.1316 54.7672 66.6679 54.7672 68.5633V70.851C54.7672 71.8619 53.9478 72.6813 52.9369 72.6813H57.8358C58.8467 72.6813 59.6661 71.8619 59.6661 70.851V68.5633C59.6661 66.6679 58.1295 65.1316 56.2344 65.1316Z" fill="#FD8087"/>
<path d="M105.188 6.82688V0.781172C105.188 0.349688 104.838 0 104.407 0H81.4948C81.0633 0 80.7136 0.349688 80.7136 0.781172V6.82688C80.7136 7.21477 80.9989 7.54313 81.383 7.59797C83.6543 7.92281 85.4002 9.87609 85.4002 12.2372C85.4002 14.5983 83.6543 16.5516 81.383 16.8764C80.9989 16.9312 80.7136 17.2596 80.7136 17.6475V23.6932C80.7136 24.1247 81.0633 24.4744 81.4948 24.4744H104.407C104.838 24.4744 105.188 24.1247 105.188 23.6932V17.6473C105.188 17.2594 104.903 16.931 104.519 16.8762C102.247 16.5513 100.501 14.598 100.501 12.237C100.501 9.87586 102.247 7.92258 104.519 7.59773C104.903 7.54313 105.188 7.21477 105.188 6.82688Z" fill="#BD80E1"/>
<path d="M104.519 7.59797C104.903 7.54313 105.188 7.21477 105.188 6.82688V0.781172C105.188 0.349688 104.838 0 104.407 0H96.8102C97.2417 0 97.5913 0.349688 97.5913 0.781172V6.82688C97.5913 7.21477 97.3061 7.54313 96.922 7.59797C94.6506 7.92281 92.9048 9.87609 92.9048 12.2372C92.9048 14.5983 94.6506 16.5516 96.922 16.8764C97.3061 16.9312 97.5913 17.2596 97.5913 17.6475V23.6932C97.5913 24.1247 97.2417 24.4744 96.8102 24.4744H104.407C104.838 24.4744 105.188 24.1247 105.188 23.6932V17.6473C105.188 17.2594 104.903 16.931 104.519 16.8762C102.247 16.5513 100.501 14.598 100.501 12.237C100.501 9.87609 102.247 7.92281 104.519 7.59797Z" fill="#AF66DA"/>
<path d="M7.67575 4.37902H1.63005C1.19856 4.37902 0.848877 4.72871 0.848877 5.16019V28.0722C0.848877 28.5037 1.19856 28.8534 1.63005 28.8534H7.67575C8.06364 28.8534 8.392 28.5682 8.44685 28.184C8.77169 25.9127 10.725 24.1668 13.0861 24.1668C15.4472 24.1668 17.4004 25.9129 17.7253 28.184C17.7801 28.5682 18.1085 28.8534 18.4964 28.8534H24.5421C24.9736 28.8534 25.3233 28.5037 25.3233 28.0722V22.0755C25.3233 21.6318 25.6924 21.2737 26.1356 21.2964C26.6904 21.3253 27.2728 21.2519 27.8772 21.0318C29.763 20.3449 31.0568 18.6098 31.0514 16.6028C31.0443 14.0205 28.9488 11.9294 26.3648 11.9294C26.2854 11.9294 26.2064 11.9315 26.1279 11.9357C25.6879 11.9592 25.3235 11.5964 25.3235 11.1557V5.15996C25.3235 4.72847 24.9738 4.37878 24.5423 4.37878H18.4966C18.1087 4.37878 17.7804 4.66402 17.7255 5.04816C17.4007 7.31949 15.4474 9.06535 13.0863 9.06535C10.7252 9.06535 8.77192 7.31925 8.44708 5.04816C8.392 4.66425 8.06364 4.37902 7.67575 4.37902Z" fill="#05E39C"/>
<path d="M26.3645 11.9294C26.285 11.9294 26.206 11.9315 26.1275 11.9357C25.6876 11.9594 25.3231 11.5964 25.3231 11.1557V5.15996C25.3231 4.72847 24.9734 4.37878 24.542 4.37878H19.5256C19.9571 4.37878 20.3068 4.72847 20.3068 5.15996V10.7264C20.3068 11.3828 20.8313 11.9109 21.4876 11.9315C21.7892 11.9411 22.0988 11.9819 22.4183 12.0593C24.2631 12.5069 25.6991 14.032 25.9817 15.9093C26.3267 18.202 24.9608 20.2668 22.8608 21.0318C22.3918 21.2027 21.9359 21.2852 21.496 21.3C20.8365 21.3222 20.3068 21.8463 20.3068 22.5061V28.072C20.3068 28.5035 19.9571 28.8532 19.5256 28.8532H24.542C24.9734 28.8532 25.3231 28.5035 25.3231 28.072V22.0755C25.3231 21.6257 25.7014 21.2756 26.1505 21.2974C26.7802 21.3278 27.4452 21.2266 28.1375 20.9282C29.8271 20.2 31.0046 18.5725 31.0496 16.7332C31.1141 14.0913 28.9918 11.9294 26.3645 11.9294Z" fill="#0ED290"/>
<path d="M18.5426 48.4104H9.83725C9.43717 48.4104 9.11279 48.086 9.11279 47.6859V38.9806C9.11279 38.5805 9.43717 38.2561 9.83725 38.2561H18.5426C18.9427 38.2561 19.2671 38.5805 19.2671 38.9806V47.6859C19.2669 48.0863 18.9427 48.4104 18.5426 48.4104Z" fill="#FE646F"/>
<path d="M18.5427 38.2563H13.4795C13.8796 38.2563 14.2039 38.5807 14.2039 38.9808V47.6862C14.2039 48.0863 13.8796 48.4106 13.4795 48.4106H18.5427C18.9428 48.4106 19.2671 48.0863 19.2671 47.6862V38.9808C19.2669 38.5807 18.9428 38.2563 18.5427 38.2563Z" fill="#FD4755"/>
<path d="M7.08656 64.0493H0.724453C0.324374 64.0493 0 63.7249 0 63.3248V56.9627C0 56.5627 0.324374 56.2383 0.724453 56.2383H7.08656C7.48664 56.2383 7.81102 56.5627 7.81102 56.9627V63.3248C7.81102 63.7252 7.48664 64.0493 7.08656 64.0493Z" fill="#BD80E1"/>
<path d="M7.08655 56.2385H3.57983C3.97991 56.2385 4.30429 56.5629 4.30429 56.963V63.3251C4.30429 63.7252 3.97991 64.0495 3.57983 64.0495H7.08655C7.48663 64.0495 7.81101 63.7252 7.81101 63.3251V56.963C7.81101 56.5627 7.48663 56.2385 7.08655 56.2385Z" fill="#AF66DA"/>
<path d="M71.6579 11.7816H65.2957C64.8957 11.7816 64.5713 11.4572 64.5713 11.0571V4.69503C64.5713 4.29496 64.8957 3.97058 65.2957 3.97058H71.6579C72.0579 3.97058 72.3823 4.29496 72.3823 4.69503V11.0571C72.3823 11.4572 72.0579 11.7816 71.6579 11.7816Z" fill="#05E39C"/>
<path d="M71.6579 3.97058H67.8899C68.29 3.97058 68.6143 4.29496 68.6143 4.69503V11.0571C68.6143 11.4572 68.29 11.7816 67.8899 11.7816H71.6579C72.058 11.7816 72.3824 11.4572 72.3824 11.0571V4.69503C72.3824 4.29496 72.058 3.97058 71.6579 3.97058Z" fill="#0ED290"/>
<path d="M47.2201 12.4479H38.5147C38.1147 12.4479 37.7903 12.1235 37.7903 11.7234V3.01803C37.7903 2.61795 38.1147 2.29358 38.5147 2.29358H47.2201C47.6202 2.29358 47.9446 2.61795 47.9446 3.01803V11.7234C47.9446 12.1235 47.6202 12.4479 47.2201 12.4479Z" fill="#FFE177"/>
<path d="M47.2203 2.29382H42.2117C42.6117 2.29382 42.9361 2.6182 42.9361 3.01828V11.7237C42.9361 12.1237 42.6117 12.4481 42.2117 12.4481H47.2203C47.6203 12.4481 47.9447 12.1237 47.9447 11.7237V3.01804C47.9447 2.61796 47.6203 2.29382 47.2203 2.29382Z" fill="#FFD15B"/>
<path d="M99.1117 76.9146H90.4063C90.0063 76.9146 89.6819 76.5902 89.6819 76.1901V67.4847C89.6819 67.0846 90.0063 66.7603 90.4063 66.7603H99.1117C99.5118 66.7603 99.8362 67.0846 99.8362 67.4847V76.1901C99.8359 76.5904 99.5118 76.9146 99.1117 76.9146Z" fill="#FFE177"/>
<path d="M99.1117 66.7605H94.123C94.5231 66.7605 94.8475 67.0849 94.8475 67.485V76.1903C94.8475 76.5904 94.5231 76.9148 94.123 76.9148H99.1117C99.5118 76.9148 99.8362 76.5904 99.8362 76.1903V67.485C99.8359 67.0849 99.5118 66.7605 99.1117 66.7605Z" fill="#FFD15B"/>
<path d="M82.8984 120V103.22C82.8984 102.249 82.1116 101.462 81.1406 101.462C80.1696 101.462 79.3828 102.249 79.3828 103.22V120H82.8984Z" fill="#01D0FB"/>
<path d="M27.3652 120V103.22C27.3652 102.249 26.5782 101.462 25.6074 101.462C24.6366 101.462 23.8496 102.249 23.8496 103.22V120H27.3652Z" fill="#01D0FB"/>
<path d="M53.3741 61.5297C50.9718 61.5297 49.0171 59.5753 49.0171 57.1729C49.0171 54.7704 50.9715 52.8159 53.3741 52.8159C54.3451 52.8159 55.1319 53.6029 55.1319 54.5737C55.1319 55.5445 54.3451 56.3315 53.3741 56.3315C52.9103 56.3315 52.5327 56.7089 52.5327 57.1729C52.5327 57.6368 52.9101 58.0141 53.3741 58.0141C54.3451 58.0141 55.1319 58.8011 55.1319 59.7719C55.1319 60.7427 54.3451 61.5297 53.3741 61.5297Z" fill="#F89580"/>
<path d="M44.9966 56.2614C44.0258 56.2614 43.2388 55.4744 43.2388 54.5036V51.6583C43.2388 50.6875 44.0258 49.9005 44.9966 49.9005C45.9674 49.9005 46.7544 50.6875 46.7544 51.6583V54.5036C46.7544 55.4744 45.9674 56.2614 44.9966 56.2614Z" fill="#F89580"/>
<path d="M61.7515 56.2614C60.7804 56.2614 59.9937 55.4744 59.9937 54.5036V51.6583C59.9937 50.6875 60.7804 49.9005 61.7515 49.9005C62.7225 49.9005 63.5093 50.6875 63.5093 51.6583V54.5036C63.5093 55.4744 62.7225 56.2614 61.7515 56.2614Z" fill="#F89580"/>
</svg>
