<svg width="125" height="125" viewBox="0 0 125 125" fill="none" xmlns="http://www.w3.org/2000/svg">
<g clip-path="url(#clip0_423_29596)">
<path d="M104.839 116.936C104.839 118.609 104.153 120.121 103.064 121.21C101.976 122.298 100.464 122.984 98.7902 122.984H48.387C50.6047 122.984 52.4192 121.169 52.4192 118.952V114.919H64.516H100.806H102.822C103.931 114.919 104.839 115.827 104.839 116.936Z" fill="#969FAA"/>
<path d="M100.806 86.6935V114.919H64.5161V110.887C64.5161 108.669 62.7016 106.855 60.4839 106.855V86.6935C60.4839 82.2379 64.0928 78.629 68.5484 78.629H92.742C97.1976 78.629 100.806 82.2379 100.806 86.6935Z" fill="#CCD1D9"/>
<path d="M36.2904 106.855H48.3872C50.6049 106.855 52.4194 108.669 52.4194 110.887V114.919V118.952C52.4194 121.169 50.6049 122.984 48.3872 122.984H46.3711H32.2582C25.5848 122.984 20.1614 117.561 20.1614 110.887V98.7903C20.1614 94.3347 23.7702 90.7258 28.2259 90.7258C30.4436 90.7258 32.4598 91.6331 33.9315 93.0847C35.3832 94.5565 36.2904 96.5726 36.2904 98.7903V106.855Z" fill="#FCD770"/>
<path d="M38.9516 93.2258C44.617 95.3629 48.3871 100.786 48.3871 106.855H36.2903V98.7903C36.2903 96.5726 35.3831 94.5565 33.9315 93.0847C32.4597 91.6331 30.4436 90.7258 28.2258 90.7258H29.617C31.371 90.7258 33.0847 91.0484 34.7379 91.6532L38.9516 93.2258Z" fill="#FCD770"/>
<path d="M92.7419 88.7097V104.839C92.7419 105.948 91.8346 106.855 90.7258 106.855H70.5645C69.4556 106.855 68.5483 105.948 68.5483 104.839V88.7097C68.5483 87.6009 69.4556 86.6936 70.5645 86.6936H90.7258C91.8346 86.6936 92.7419 87.6009 92.7419 88.7097Z" fill="#69D6F4"/>
<path d="M32.2581 18.1452C34.485 18.1452 36.2903 16.3399 36.2903 14.1129C36.2903 11.886 34.485 10.0807 32.2581 10.0807C30.0311 10.0807 28.2258 11.886 28.2258 14.1129C28.2258 16.3399 30.0311 18.1452 32.2581 18.1452Z" fill="#FF826E"/>
<path d="M54.4355 50.4032C54.4355 51.5121 53.9919 52.5202 53.246 53.246C52.5201 53.9919 51.5121 54.4355 50.4032 54.4355H49.5968C43.9314 54.4355 38.4476 53.004 33.6089 50.4032H18.1451C13.6895 50.4032 10.0806 54.0121 10.0806 58.4678V62.5H8.0645C6.85482 62.5 5.74595 62.8629 4.79837 63.4476C2.98386 60.1613 2.01611 56.4315 2.01611 52.621C2.01611 40.2621 12.0363 30.2419 24.3951 30.2419H32.258H40.121C50.2218 30.2419 58.75 36.9153 61.5322 46.1089C62.1572 48.1653 62.5 50.3629 62.5 52.621V54.2742C62.5 57.621 61.754 60.9073 60.3226 63.9113C59.2742 63.0242 57.9234 62.5 56.4516 62.5H54.4355V50.4032Z" fill="#656D78"/>
<path d="M48.387 106.855H60.4837C62.7015 106.855 64.516 108.669 64.516 110.887V114.919H52.4192V110.887C52.4192 108.669 50.6047 106.855 48.387 106.855Z" fill="#F0D0B4"/>
<path d="M60.3225 63.9113C60.7459 64.254 61.129 64.6573 61.4314 65.121C61.4515 65.121 61.4515 65.1411 61.4717 65.1613C62.1169 66.129 62.4999 67.2984 62.4999 68.5484C62.4999 70.2218 61.8145 71.7339 60.7257 72.8226C59.637 73.9113 58.1249 74.5968 56.4515 74.5968H54.4354L54.3145 74.5766C54.3951 73.9315 54.4354 73.246 54.4354 72.5806V62.5H56.4515C57.9233 62.5 59.2741 63.0242 60.3225 63.9113Z" fill="#F0D0B4"/>
<path d="M53.2459 53.2461C53.9919 52.5203 54.4354 51.5122 54.4354 50.4033V62.5001V72.5807C54.4354 73.2461 54.3951 73.9315 54.3144 74.5767C53.3265 83.6493 45.6451 90.7259 36.2902 90.7259H29.6169H28.2257C18.8709 90.7259 11.1894 83.6493 10.2015 74.5767C10.1209 73.9315 10.0806 73.2461 10.0806 72.5807V62.5001V58.4678C10.0806 54.0122 13.6894 50.4033 18.1451 50.4033H33.6088C38.4475 53.0041 43.9314 54.4356 49.5967 54.4356H50.4031C51.512 54.4356 52.5201 53.992 53.2459 53.2461Z" fill="#F0D0B4"/>
<path d="M10.0806 72.5806C10.0806 73.246 10.121 73.9315 10.2016 74.5766L10.0806 74.5968H8.0645C6.39111 74.5968 4.87902 73.9113 3.79031 72.8226C2.7016 71.7339 2.01611 70.2218 2.01611 68.5484C2.01611 66.4113 3.12498 64.5363 4.79837 63.4476C5.74595 62.8629 6.85482 62.5 8.0645 62.5H10.0806V72.5806Z" fill="#F0D0B4"/>
<path d="M88.7098 42.3387C93.1637 42.3387 96.7743 38.7281 96.7743 34.2742C96.7743 29.8203 93.1637 26.2097 88.7098 26.2097C84.2559 26.2097 80.6453 29.8203 80.6453 34.2742C80.6453 38.7281 84.2559 42.3387 88.7098 42.3387Z" fill="#FF826E"/>
<path d="M24.1936 74.5968H40.3226C40.3226 76.8145 39.4154 78.8307 37.9638 80.3025C36.492 81.7541 34.4759 82.6613 32.2581 82.6613C27.8025 82.6613 24.1936 79.0524 24.1936 74.5968Z" fill="#FF826E"/>
<path d="M102.823 112.903V86.6936C102.823 81.1351 98.3004 76.6129 92.7419 76.6129H68.5484C62.9899 76.6129 58.4677 81.1351 58.4677 86.6936V104.839H50.246C49.5665 99.379 46.1794 94.5786 41.2621 92.0948C48.6976 90.1976 54.502 84.1814 56.0464 76.6109H56.4516C60.8992 76.6109 64.5161 72.9939 64.5161 68.5464C64.5161 68.496 64.502 68.4496 64.502 68.3992C65.121 68.4919 65.7621 68.5484 66.4335 68.5484C72.4173 68.5484 80.379 64.9798 88.7399 58.621C96.9939 64.8609 105.02 68.5484 111.012 68.5484C114.079 68.5484 116.619 67.5665 118.361 65.7097C124 59.6935 119.851 46.8145 111.506 34.2742C119.851 21.7339 124.002 8.85484 118.361 2.83871C116.619 0.981855 114.077 0 111.012 0C105.014 0 96.9738 3.69758 88.7097 9.95161C80.4456 3.69758 72.4052 0 66.4073 0C63.3407 0 60.8004 0.981855 59.0585 2.83871C56.9536 5.08468 56.25 8.31048 56.5806 12.0968H37.9355C37.1008 9.75605 34.8831 8.06452 32.2581 8.06452C28.9234 8.06452 26.2097 10.7782 26.2097 14.1129C26.2097 16.7379 27.9012 18.9556 30.2419 19.7903V28.2258H24.4032C10.9476 28.2258 0 39.1734 0 52.629C0 56.1814 0.828629 59.6855 2.32056 62.8992C0.889113 64.3569 0 66.3488 0 68.5484C0 72.996 3.61694 76.6129 8.06452 76.6129H8.47177C9.87702 83.5061 14.8206 89.1109 21.3085 91.4919C19.369 93.3307 18.1452 95.9113 18.1452 98.7863V110.887C18.1452 118.669 24.4778 125 32.2581 125H46.369H98.7903C103.238 125 106.855 121.383 106.855 116.935C106.855 114.712 105.046 112.903 102.823 112.903ZM68.5484 80.6452H92.7419C96.0766 80.6452 98.7903 83.3589 98.7903 86.6936V112.903H66.5323V110.887C66.5323 108.262 64.8407 106.044 62.5 105.21V86.6936C62.5 83.3589 65.2137 80.6452 68.5484 80.6452ZM54.0645 108.871H60.4839C61.5968 108.871 62.5 109.776 62.5 110.887V112.903H54.4355V110.887C54.4355 110.177 54.2903 109.506 54.0645 108.871ZM46.1976 104.839H38.3044L38.3064 98.7883C38.3064 97.3891 38.0181 96.0564 37.5 94.8448L38.2399 95.121C42.4637 96.7056 45.4758 100.474 46.1976 104.839ZM56.4516 72.5806V64.5161C58.6754 64.5161 60.4839 66.3246 60.4839 68.5484C60.4839 70.7722 58.6754 72.5806 56.4516 72.5806ZM62.7379 63.5585C62.7177 63.5323 62.6956 63.5081 62.6754 63.4819C63.8589 60.5685 64.5161 57.4254 64.5161 54.2823V52.629C64.5161 50.4456 64.1996 48.3367 63.6593 46.3206C64.9194 43.5544 66.504 40.6875 68.3669 37.7923C70.7823 41.0907 73.4476 44.3206 76.2802 47.3407C79.2762 50.5363 82.3669 53.4476 85.4597 56.0242C75.1936 63.6129 66.4758 66.0907 62.7379 63.5585ZM70.7621 34.2742C73.2561 30.7843 76.0927 27.3004 79.2218 23.9637C82.3085 20.6714 85.5161 17.6915 88.7097 15.0806C91.9032 17.6895 95.1109 20.6694 98.1976 23.9637C101.444 27.4254 104.25 30.8931 106.659 34.2722C104.25 37.6512 101.444 41.1189 98.1976 44.5806C94.9939 47.996 91.8125 50.9436 88.7278 53.4758C85.5282 50.8629 82.3145 47.879 79.2218 44.5806C75.9778 41.123 73.1714 37.6532 70.7621 34.2742ZM115.417 62.9516C114.446 63.9899 112.962 64.5161 111.012 64.5161C106.083 64.5161 99.2016 61.3448 91.9919 56.0262C95.0403 53.4718 98.1149 50.5686 101.141 47.3407C103.97 44.3246 106.633 41.0988 109.046 37.8024C116.5 49.4456 118.722 59.4274 115.417 62.9516ZM111.012 4.03226C112.964 4.03226 114.446 4.55847 115.419 5.59677C118.724 9.12097 116.502 19.1048 109.046 30.746C106.633 27.4496 103.97 24.2258 101.141 21.2077C98.1492 18.0181 95.0645 15.1089 91.9758 12.5363C99.1895 7.20968 106.079 4.03226 111.012 4.03226ZM62.002 5.59677C62.9738 4.55847 64.4577 4.03226 66.4073 4.03226C71.3387 4.03226 78.2298 7.20968 85.4456 12.5343C82.3569 15.1089 79.2702 18.0161 76.2802 21.2056C73.3952 24.2823 70.7399 27.4859 68.3568 30.7157C60.9153 19.0867 58.6996 9.11895 62.002 5.59677ZM32.2581 12.0968C33.371 12.0968 34.2742 13.002 34.2742 14.1129C34.2742 15.2238 33.371 16.129 32.2581 16.129C31.1452 16.129 30.2419 15.2238 30.2419 14.1129C30.2419 13.002 31.1452 12.0968 32.2581 12.0968ZM34.2742 19.7903C35.9819 19.1815 37.3266 17.8367 37.9355 16.129H57.254C58.625 21.6532 61.7339 27.9798 65.8891 34.2339C64.3125 36.5887 62.9032 38.9335 61.6794 41.2419C57.5806 33.5101 49.4556 28.2258 40.1129 28.2258H34.2742V19.7903ZM4.03226 68.5484C4.03226 66.3246 5.84073 64.5161 8.06452 64.5161V72.5806C5.84073 72.5806 4.03226 70.7722 4.03226 68.5484ZM8.06452 58.4677V60.4839C7.27419 60.4839 6.52419 60.6331 5.8004 60.8468C4.66129 58.2621 4.03226 55.4637 4.03226 52.629C4.03226 41.3972 13.1714 32.2581 24.4032 32.2581H40.1109C51.3448 32.2581 60.4839 41.3972 60.4839 52.629V54.2823C60.4839 56.5726 60.0847 58.871 59.3246 61.0363C58.4294 60.6936 57.4657 60.4839 56.4516 60.4839V50.4032C56.4516 47.0685 53.7379 44.3548 50.4032 44.3548H48.3871V48.3871H50.4032C51.5161 48.3871 52.4194 49.2923 52.4194 50.4032C52.4194 51.5141 51.5161 52.4194 50.4032 52.4194H49.6028C39.3931 52.4194 29.752 47.4597 23.8185 39.1512L20.5383 41.4939C22.4012 44.1008 24.5948 46.4032 27.0282 48.3871H18.1452C12.5867 48.3871 8.06452 52.9093 8.06452 58.4677ZM12.0968 72.5806V58.4677C12.0968 55.1331 14.8105 52.4194 18.1452 52.4194H33.1431C38.1653 55.0282 43.8004 56.4516 49.6028 56.4516H50.4032C51.1129 56.4516 51.7863 56.3064 52.4194 56.0806V72.5806C52.4194 81.4758 45.1835 88.7097 36.2883 88.7097H29.619H28.254C28.244 88.7097 28.2339 88.7077 28.2258 88.7077C28.2198 88.7077 28.2137 88.7097 28.2056 88.7097C19.3226 88.6976 12.0968 81.4677 12.0968 72.5806ZM22.1774 110.887V98.7883C22.1774 95.4597 24.881 92.754 28.2056 92.7419H28.2258H28.254C31.5766 92.7601 34.2742 95.4637 34.2742 98.7883L34.2722 106.244L30.5806 111.784L33.9355 114.02L37.3669 108.871H48.3871H48.3911C49.502 108.875 50.4032 109.778 50.4032 110.887V118.952C50.4032 120.062 49.5 120.968 48.3871 120.968H32.2581C26.6996 120.968 22.1774 116.444 22.1774 110.887ZM98.7903 120.968H54.0645C54.2903 120.335 54.4355 119.661 54.4355 118.952V116.935H102.823C102.823 119.159 101.014 120.968 98.7903 120.968Z" fill="#222222"/>
<path d="M70.5645 108.871H90.7258C92.9496 108.871 94.758 107.062 94.758 104.839V88.7096C94.758 86.4858 92.9496 84.6774 90.7258 84.6774H70.5645C68.3407 84.6774 66.5322 86.4858 66.5322 88.7096V104.839C66.5322 107.062 68.3407 108.871 70.5645 108.871ZM70.5645 88.7096H90.7258L90.7278 104.839H70.5645V88.7096Z" fill="#222222"/>
<path d="M42.3366 74.5968V72.5807H22.1753V74.5968C22.1753 80.1553 26.6975 84.6775 32.2559 84.6775C37.8144 84.6775 42.3366 80.1553 42.3366 74.5968ZM26.5523 76.6129H37.9596C37.1269 78.9597 34.885 80.6452 32.2559 80.6452C29.6269 80.6452 27.385 78.9597 26.5523 76.6129Z" fill="#222222"/>
<path d="M26.2076 68.5484H30.2399C30.2399 64.1008 26.6229 60.4839 22.1754 60.4839C17.7278 60.4839 14.1108 64.1008 14.1108 68.5484H18.1431C18.1431 66.3246 19.9516 64.5161 22.1754 64.5161C24.3991 64.5161 26.2076 66.3246 26.2076 68.5484Z" fill="#222222"/>
<path d="M42.3367 64.5161C44.5605 64.5161 46.369 66.3246 46.369 68.5484H50.4012C50.4012 64.1008 46.7843 60.4839 42.3367 60.4839C37.8892 60.4839 34.2722 64.1008 34.2722 68.5484H38.3045C38.3045 66.3246 40.1129 64.5161 42.3367 64.5161Z" fill="#222222"/>
<path d="M88.7098 44.3549C94.2683 44.3549 98.7904 39.8327 98.7904 34.2742C98.7904 28.7158 94.2683 24.1936 88.7098 24.1936C83.1513 24.1936 78.6292 28.7158 78.6292 34.2742C78.6292 39.8327 83.1513 44.3549 88.7098 44.3549ZM88.7098 28.2259C92.0445 28.2259 94.7582 30.9396 94.7582 34.2742C94.7582 37.6089 92.0445 40.3226 88.7098 40.3226C85.3751 40.3226 82.6614 37.6089 82.6614 34.2742C82.6614 30.9396 85.3751 28.2259 88.7098 28.2259Z" fill="#222222"/>
<path d="M106.855 72.5807H125V76.6129H106.855V72.5807Z" fill="#222222"/>
<path d="M106.855 80.6451H110.887V84.6774H106.855V80.6451Z" fill="#222222"/>
<path d="M114.919 80.6451H125V84.6774H114.919V80.6451Z" fill="#222222"/>
<path d="M106.855 88.7097H125V92.742H106.855V88.7097Z" fill="#222222"/>
<path d="M106.855 96.7742H125V100.806H106.855V96.7742Z" fill="#222222"/>
</g>
<defs>
<clipPath id="clip0_423_29596">
<rect width="125" height="125" fill="white"/>
</clipPath>
</defs>
</svg>
