<svg width="147" height="111" viewBox="0 0 147 111" fill="none" xmlns="http://www.w3.org/2000/svg">
<path d="M108.182 77.8405L89.1035 71.1094V65.0842C92.7627 63.1821 95.8298 60.3123 97.9705 56.7875C100.111 53.2626 101.244 49.2178 101.244 45.0938V26.0156C101.244 20.0358 98.8687 14.3009 94.6403 10.0726C90.412 5.84422 84.6771 3.46875 78.6973 3.46875C72.7175 3.46875 66.9826 5.84422 62.7542 10.0726C58.5259 14.3009 56.1504 20.0358 56.1504 26.0156V45.0938C56.1509 49.2178 57.2833 53.2626 59.424 56.7875C61.5647 60.3123 64.6318 63.1821 68.291 65.0842V71.1094L49.2216 77.8405C46.1761 78.9152 43.539 80.908 41.6737 83.5443C39.8084 86.1807 38.8067 89.3306 38.8066 92.5601V107.531H118.588V92.5601C118.589 89.3317 117.588 86.1825 115.724 83.5463C113.861 80.9101 111.225 78.9166 108.182 77.8405Z" fill="#EDCBB2"/>
<path d="M38.8066 100.594H52.6816V107.531H38.8066V100.594Z" fill="#EDCBB2"/>
<path d="M104.713 100.594H118.588V107.531H104.713V100.594Z" fill="#EDCBB2"/>
<path d="M108.182 77.8405L89.1035 71.1094L87.579 72.6339C85.2232 74.9891 82.0284 76.3122 78.6973 76.3122C75.3661 76.3122 72.1713 74.9891 69.8155 72.6339L68.291 71.1094L49.2216 77.8405C46.1761 78.9152 43.539 80.908 41.6737 83.5443C39.8084 86.1807 38.8067 89.3306 38.8066 92.5601V100.594H52.6816V107.531H104.713V100.594H118.588V92.5601C118.589 89.3317 117.588 86.1825 115.724 83.5463C113.861 80.9101 111.225 78.9166 108.182 77.8405Z" fill="#D24034"/>
<path d="M56.1504 45.0938V34.6875H49.2129C48.2929 34.6875 47.4106 35.053 46.7601 35.7035C46.1096 36.354 45.7441 37.2363 45.7441 38.1562V48.5625C45.7441 49.4825 46.1096 50.3648 46.7601 51.0153C47.4106 51.6658 48.2929 52.0312 49.2129 52.0312H57.25C56.5223 49.7906 56.1512 47.4496 56.1504 45.0938Z" fill="#939393"/>
<path d="M108.182 34.6875H101.244V45.0938C101.243 47.4496 100.872 49.7906 100.145 52.0312H108.182C109.102 52.0312 109.984 51.6658 110.634 51.0153C111.285 50.3648 111.65 49.4825 111.65 48.5625V38.1562C111.65 37.2363 111.285 36.354 110.634 35.7035C109.984 35.053 109.102 34.6875 108.182 34.6875Z" fill="#939393"/>
<path d="M78.6973 3.46875C75.593 3.46767 72.5221 4.1102 69.6786 5.35575C64.1999 12.1956 61.2583 20.7214 61.3536 29.4844C61.3536 48.5833 74.4741 64.0678 90.6888 64.1632C93.919 62.1385 96.5821 59.3266 98.4284 55.9912C100.275 52.6558 101.244 48.9061 101.244 45.0938V26.0156C101.244 23.0547 100.661 20.1228 99.5279 17.3873C98.3948 14.6518 96.734 12.1663 94.6404 10.0726C92.5467 7.97891 90.0611 6.31812 87.3256 5.18503C84.5901 4.05194 81.6582 3.46875 78.6973 3.46875Z" fill="#F6DBC4"/>
<path d="M78.6973 3.46875C72.7175 3.46875 66.9826 5.84422 62.7542 10.0726C58.5259 14.3009 56.1504 20.0358 56.1504 26.0156V29.4844H101.244V26.0156C101.244 23.0547 100.661 20.1228 99.5279 17.3873C98.3948 14.6518 96.734 12.1662 94.6403 10.0726C92.5466 7.97891 90.0611 6.31812 87.3256 5.18503C84.5901 4.05194 81.6582 3.46875 78.6973 3.46875Z" fill="#AA2B24"/>
<path d="M56.1504 29.4844L61.1801 35.5217C62.3197 36.8894 63.7461 37.9897 65.3583 38.7447C66.9705 39.4997 68.729 39.8909 70.5093 39.8906H86.8853C88.6655 39.8909 90.424 39.4997 92.0362 38.7447C93.6484 37.9897 95.0748 36.8894 96.2145 35.5217L101.244 29.4844H56.1504Z" fill="#D24034"/>
<path d="M142.869 86.7188L135.932 83.25L137.666 78.0469L130.729 81.5156V91.9219L137.666 95.3906L135.932 90.1875L142.869 86.7188Z" fill="#F3A845"/>
<path d="M135.932 87.3188L132.959 85.8307L133.701 83.6021L130.729 85.0884V89.5475L133.701 91.0338L132.959 88.8052L135.932 87.3188Z" fill="#EECC61"/>
<path d="M94.3066 83.25C93.3867 83.25 92.5044 83.6155 91.8539 84.266C91.2033 84.9165 90.8379 85.7988 90.8379 86.7188V95.3906H122.057V90.1875H125.525V83.25H94.3066Z" fill="#BEBEBE"/>
<path d="M90.8379 90.1875H122.057V95.3906H90.8379V90.1875Z" fill="#939393"/>
<path d="M96.041 95.3906L92.5723 107.531H101.244L104.713 95.3906H96.041Z" fill="#BEBEBE"/>
<path d="M101.244 26.0156C101.241 21.3915 99.8165 16.8801 97.1633 13.0929C94.5101 9.30576 90.7566 6.42594 86.4116 4.84382C82.0666 3.2617 77.3402 3.05379 72.873 4.24827C68.4059 5.44274 64.414 7.98185 61.4385 11.5214C62.3091 21.5357 74.7307 29.4843 89.9707 29.4843H101.244V26.0156Z" fill="#D24034"/>
<path d="M143.644 85.1665L138.053 82.3707L139.312 78.595C139.422 78.2687 139.432 77.917 139.341 77.5849C139.251 77.2527 139.063 76.955 138.803 76.7298C138.542 76.5045 138.221 76.3619 137.879 76.32C137.537 76.2781 137.191 76.3389 136.884 76.4947L129.946 79.9634L131.497 83.0679L134.69 81.4706L134.279 82.702C134.146 83.0978 134.161 83.5281 134.32 83.914C134.48 84.2998 134.773 84.6152 135.146 84.8023L138.991 86.7188L135.156 88.6266C134.783 88.8138 134.49 89.1292 134.331 89.515C134.172 89.9008 134.157 90.3311 134.289 90.7269L134.7 91.9584L131.507 90.361L129.957 93.4655L136.894 96.9343C137.201 97.09 137.548 97.1508 137.89 97.1089C138.231 97.0671 138.553 96.9244 138.813 96.6992C139.074 96.4739 139.261 96.1762 139.352 95.8441C139.442 95.5119 139.432 95.1603 139.322 94.8339L138.063 91.0582L143.644 88.2797C143.933 88.1359 144.176 87.9144 144.345 87.6402C144.515 87.366 144.605 87.05 144.605 86.7275C144.605 86.405 144.515 86.0889 144.345 85.8147C144.176 85.5405 143.933 85.3191 143.644 85.1752V85.1665Z" fill="black"/>
<g clip-path="url(#clip0_423_29555)">
<path d="M32.6279 57.6464V63.9661C32.6279 64.8765 31.9128 65.5921 31.002 65.5921H24.498C23.5872 65.5921 22.8721 64.8765 22.8721 63.9661V57.6464H32.6279Z" fill="#D2C5C2"/>
<path d="M31.002 65.5921H27.75V57.6464H32.6279V63.9661C32.6279 64.8765 31.9128 65.5921 31.002 65.5921Z" fill="#C4B3AF"/>
<path d="M44.5051 72.7193C44.1414 72.7193 43.7777 72.5986 43.4779 72.3543L38.4107 68.2241C38.055 67.9332 37.8378 67.5047 37.8137 67.0457C37.7916 66.5872 37.9631 66.1392 38.2887 65.8135L40.8628 63.2395C42.706 61.3963 45.9198 61.3976 47.7605 63.2382V63.2395H47.7618C48.6827 64.1605 49.1896 65.385 49.1896 66.6884C49.1896 67.9904 48.6814 69.2162 47.7605 70.1372L45.6548 72.2429C45.3389 72.5588 44.9226 72.7193 44.5051 72.7193Z" fill="#C4B3AF"/>
<path d="M10.9947 72.7193C10.5772 72.7193 10.161 72.5588 9.84511 72.2429L7.73938 70.1372C6.81842 69.2163 6.3103 67.9904 6.3103 66.6888C6.3103 65.385 6.81842 64.1592 7.73938 63.2383C9.57665 61.401 12.7939 61.3963 14.6371 63.2399L17.2111 65.8136C17.5367 66.1392 17.7082 66.5872 17.6858 67.0457C17.6621 67.5047 17.4444 67.9333 17.0887 68.2242L12.022 72.3543C11.7222 72.5986 11.3585 72.7193 10.9947 72.7193Z" fill="#D2C5C2"/>
<path d="M27.75 62.1123C14.287 62.1123 3.36035 73.039 3.36035 86.502C3.36035 99.965 14.287 111 27.75 111C41.213 111 52.1396 99.965 52.1396 86.502C52.1396 73.039 41.213 62.1123 27.75 62.1123Z" fill="#4A696F"/>
<path d="M52.1396 86.502C52.1396 99.965 41.213 111 27.75 111V62.1123C41.213 62.1123 52.1396 73.039 52.1396 86.502Z" fill="#3E5959"/>
<path d="M44.0098 86.502C44.0098 95.4774 36.7255 102.762 27.75 102.762C18.7745 102.762 11.4902 95.4774 11.4902 86.502C11.4902 77.5265 18.7745 70.2422 27.75 70.2422C36.7255 70.2422 44.0098 77.5265 44.0098 86.502Z" fill="#FFD400"/>
<path d="M44.0098 86.502C44.0098 95.4774 36.7255 102.762 27.75 102.762V70.2422C36.7255 70.2422 44.0098 77.5265 44.0098 86.502Z" fill="#FDBF00"/>
<path d="M35.8799 57.126C35.8799 58.0364 35.1647 58.752 34.2539 58.752H21.2461C20.3353 58.752 19.6201 58.0364 19.6201 57.126C19.6201 56.2152 20.3353 55.5 21.2461 55.5H34.2539C35.1647 55.5 35.8799 56.2152 35.8799 57.126Z" fill="#4A696F"/>
<path d="M35.8799 86.502C35.8799 87.4123 35.1647 88.1279 34.2539 88.1279H27.75C26.8392 88.1279 26.124 87.4123 26.124 86.502V79.998C26.124 79.0872 26.8392 78.3721 27.75 78.3721C28.6608 78.3721 29.376 79.0872 29.376 79.998V84.876H34.2539C35.1647 84.876 35.8799 85.5912 35.8799 86.502Z" fill="#4A696F"/>
<path d="M29.376 71.2504V73.4941C29.376 74.4045 28.6608 75.1201 27.75 75.1201C26.8392 75.1201 26.124 74.4045 26.124 73.4941V71.2504C26.124 70.3722 26.8392 69.6244 27.75 69.6244C28.6608 69.6244 29.376 70.3722 29.376 71.2504Z" fill="#4A696F"/>
<path d="M14.7422 88.1279H12.7097C11.8112 88.1279 11.0837 87.4005 11.0837 86.502C11.0837 85.6034 11.8112 84.876 12.7097 84.876H14.7422C15.6407 84.876 16.3682 85.6034 16.3682 86.502C16.3682 87.4005 15.6407 88.1279 14.7422 88.1279Z" fill="#4A696F"/>
<path d="M42.9935 88.1279H40.7578C39.8593 88.1279 39.1318 87.4005 39.1318 86.502C39.1318 85.6034 39.8593 84.876 40.7578 84.876H42.9935C43.8921 84.876 44.6195 85.6034 44.6195 86.502C44.6195 87.4005 43.8921 88.1279 42.9935 88.1279Z" fill="#3E5959"/>
<path d="M29.376 99.5098V101.656C29.376 102.534 28.6608 103.282 27.75 103.282C26.8392 103.282 26.124 102.534 26.124 101.656V99.5098C26.124 98.599 26.8392 97.8838 27.75 97.8838C28.6608 97.8838 29.376 98.599 29.376 99.5098Z" fill="#4A696F"/>
<path d="M27.75 68.6162C17.8963 68.6162 9.86426 76.6483 9.86426 86.502C9.86426 96.3552 17.8963 104.388 27.75 104.388C37.6037 104.388 45.6357 96.3552 45.6357 86.502C45.6357 76.6483 37.6037 68.6162 27.75 68.6162ZM27.75 101.136C19.6853 101.136 13.1162 94.5666 13.1162 86.502C13.1162 78.4369 19.6853 71.8682 27.75 71.8682C35.8147 71.8682 42.3838 78.4369 42.3838 86.502C42.3838 94.5666 35.8147 101.136 27.75 101.136Z" fill="#FDBF00"/>
<path d="M27.75 75.1201V69.6244C28.6608 69.6244 29.376 70.3722 29.376 71.2504V73.4941C29.376 74.4045 28.6608 75.1201 27.75 75.1201Z" fill="#3E5959"/>
<path d="M29.376 99.5098V101.656C29.376 102.534 28.6608 103.282 27.75 103.282V97.8838C28.6608 97.8838 29.376 98.599 29.376 99.5098Z" fill="#3E5959"/>
<path d="M35.8799 86.502C35.8799 87.4123 35.1647 88.1279 34.2539 88.1279H27.75V78.3721C28.6608 78.3721 29.376 79.0872 29.376 79.998V84.876H34.2539C35.1647 84.876 35.8799 85.5912 35.8799 86.502Z" fill="#3E5959"/>
<path d="M45.6357 86.502C45.6357 96.3552 37.6037 104.388 27.75 104.388V101.136C35.8147 101.136 42.3838 94.5666 42.3838 86.502C42.3838 78.4369 35.8147 71.8682 27.75 71.8682V68.6162C37.6037 68.6162 45.6357 76.6483 45.6357 86.502Z" fill="#FF9F00"/>
<path d="M34.2539 58.752H27.75V55.5H34.2539C35.1647 55.5 35.8799 56.2152 35.8799 57.126C35.8799 58.0364 35.1647 58.752 34.2539 58.752Z" fill="#3E5959"/>
</g>
<defs>
<clipPath id="clip0_423_29555">
<rect width="55.5" height="55.5" fill="white" transform="translate(0 55.5)"/>
</clipPath>
</defs>
</svg>
