<svg width="34" height="22" viewBox="0 0 34 22" fill="none" xmlns="http://www.w3.org/2000/svg">
    <path d="M33.9167 2.98035C33.7754 2.38872 33.4568 1.82954 32.992 1.35943C32.8975 1.26074 32.7988 1.17293 32.6908 1.08386C31.8638 0.395066 30.7134 0 29.5344 0H4.46542C3.27336 0 2.15223 0.385109 1.30854 1.08425C1.20175 1.17249 1.10274 1.26118 1.00473 1.36301C0.541875 1.83114 0.224652 2.38954 0.0867266 2.982C0.0290859 3.21467 0 3.45574 0 3.69963V18.2863C0 18.7937 0.124445 19.2879 0.371145 19.7577C0.584641 20.1748 0.90857 20.5703 1.30827 20.9013C1.40894 20.9843 1.50895 21.0609 1.61573 21.1356C2.41486 21.6839 3.42676 21.9856 4.46542 21.9856H29.5344C30.5798 21.9856 31.5907 21.6827 32.3877 21.1295C32.4942 21.0581 32.593 20.9831 32.6917 20.9013C33.0781 20.5816 33.3851 20.2142 33.6059 19.809L33.635 19.7513C33.8771 19.2904 34 18.7979 34 18.2863V3.69963C34 3.45893 33.972 3.21626 33.9167 2.98035ZM2.31246 2.36104C2.37562 2.28446 2.45623 2.20585 2.5591 2.11997C3.0697 1.69717 3.74684 1.46451 4.46536 1.46451H29.5344C30.2592 1.46451 30.9365 1.69756 31.4415 2.12079C31.5287 2.1938 31.612 2.27484 31.6846 2.35582L31.8763 2.56928L18.4955 12.2309C18.083 12.5305 17.5518 12.6954 16.9998 12.6954C16.4532 12.6954 15.9226 12.5309 15.5051 12.2313L2.13762 2.57203L2.31246 2.36104ZM1.7767 18.4151C1.76946 18.3753 1.7678 18.3312 1.7678 18.2863V4.00166L12.1517 11.5064L1.87259 18.9313L1.7767 18.4151ZM30.8722 20.2266C30.4703 20.4187 30.0075 20.5206 29.5344 20.5206H4.46542C3.99214 20.5206 3.52949 20.4187 3.12787 20.2266L2.70765 20.0248L13.3284 12.3568L14.4924 13.1955C15.1906 13.6977 16.0809 13.9745 16.9999 13.9745C17.9223 13.9745 18.8142 13.6977 19.5119 13.1955L20.6754 12.3564L31.2925 20.0252L30.8722 20.2266ZM32.2317 18.2863C32.2317 18.3304 32.2307 18.3741 32.224 18.413L32.132 18.9341L21.8485 11.5104L32.2317 4.00529V18.2863Z" fill="#1C274C"/>
</svg>
