<svg width="34" height="34" viewBox="0 0 34 34" fill="none" xmlns="http://www.w3.org/2000/svg">
    <path d="M12.75 22.6667C12.75 23.4491 12.1157 24.0833 11.3333 24.0833C10.5509 24.0833 9.91666 23.4491 9.91666 22.6667C9.91666 21.8842 10.5509 21.25 11.3333 21.25C12.1157 21.25 12.75 21.8842 12.75 22.6667Z" fill="#1C274C"/>
    <path d="M18.4167 22.6667C18.4167 23.4491 17.7824 24.0833 17 24.0833C16.2176 24.0833 15.5833 23.4491 15.5833 22.6667C15.5833 21.8842 16.2176 21.25 17 21.25C17.7824 21.25 18.4167 21.8842 18.4167 22.6667Z" fill="#1C274C"/>
    <path d="M24.0833 22.6667C24.0833 23.4491 23.4491 24.0833 22.6667 24.0833C21.8842 24.0833 21.25 23.4491 21.25 22.6667C21.25 21.8842 21.8842 21.25 22.6667 21.25C23.4491 21.25 24.0833 21.8842 24.0833 22.6667Z" fill="#1C274C"/>
    <path d="M8.5 14.1666V11.3333C8.5 10.8506 8.54023 10.3773 8.61753 9.91659M25.5 14.1666V11.3333C25.5 6.63883 21.6944 2.83325 17 2.83325C14.4613 2.83325 12.1825 3.94623 10.625 5.71087" stroke="#1C274C" stroke-width="2" stroke-linecap="round"/>
    <path d="M15.5833 31.1667H11.3333C7.3264 31.1667 5.32294 31.1667 4.07814 29.9219C2.83334 28.6771 2.83334 26.6736 2.83334 22.6667C2.83334 18.6598 2.83334 16.6564 4.07814 15.4116C5.32294 14.1667 7.3264 14.1667 11.3333 14.1667H22.6667C26.6736 14.1667 28.677 14.1667 29.9219 15.4116C31.1667 16.6564 31.1667 18.6598 31.1667 22.6667C31.1667 26.6736 31.1667 28.6771 29.9219 29.9219C28.677 31.1667 26.6736 31.1667 22.6667 31.1667H21.25" stroke="#1C274C" stroke-width="2" stroke-linecap="round"/>
</svg>
