<svg width="45" height="30" viewBox="0 0 45 30" fill="none" xmlns="http://www.w3.org/2000/svg">
<path d="M0.529297 30V0.876953H10.7549C16.3916 0.876953 20.9985 5.30322 20.9985 10.7231C20.9985 16.125 16.3916 20.5332 10.7549 20.5332H6.38281V30H0.529297ZM10.7549 14.752C13.1758 14.77 15.145 12.9272 15.145 10.6689C15.145 8.46484 13.1758 6.67627 10.7549 6.67627H6.38281V14.7339L10.7549 14.752ZM24.3047 30V0.876953H34.5303C40.167 0.876953 44.7739 5.30322 44.7739 10.7231C44.7739 16.125 40.167 20.5332 34.5303 20.5332H30.1582V30H24.3047ZM34.5303 14.752C36.9512 14.77 38.9204 12.9272 38.9204 10.6689C38.9204 8.46484 36.9512 6.67627 34.5303 6.67627H30.1582V14.7339L34.5303 14.752Z" fill="white"/>
</svg>
