<svg width="46" height="30" viewBox="0 0 46 30" fill="none" xmlns="http://www.w3.org/2000/svg">
<g clip-path="url(#clip0_423_34046)">
<path d="M42.742 0H2.408C1.0781 0 0 1.1036 0 2.46497V26.56C0 27.9214 1.0781 29.025 2.408 29.025H42.742C44.0719 29.025 45.15 27.9214 45.15 26.56V2.46497C45.15 1.1036 44.0719 0 42.742 0Z" fill="#F4F4F4"/>
<path fill-rule="evenodd" clip-rule="evenodd" d="M37.2638 26.0054L37.0832 26.067C37.0576 26.0901 37.0371 26.1186 37.023 26.1505C37.009 26.1823 37.0017 26.2169 37.0017 26.2519C37.0017 26.2869 37.009 26.3214 37.023 26.3533C37.0371 26.3852 37.0576 26.4136 37.0832 26.4368C37.1058 26.463 37.1336 26.484 37.1647 26.4984C37.1959 26.5128 37.2296 26.5202 37.2638 26.5202C37.298 26.5202 37.3317 26.5128 37.3629 26.4984C37.394 26.484 37.4218 26.463 37.4444 26.4368C37.47 26.4136 37.4906 26.3852 37.5046 26.3533C37.5187 26.3214 37.5259 26.2869 37.5259 26.2519C37.5259 26.2169 37.5187 26.1823 37.5046 26.1505C37.4906 26.1186 37.47 26.0901 37.4444 26.067L37.2638 26.0054ZM37.2638 26.4368C37.2159 26.4368 37.17 26.4173 37.1361 26.3826C37.1022 26.3479 37.0832 26.3009 37.0832 26.2519C37.0832 26.2028 37.1022 26.1558 37.1361 26.1212C37.17 26.0865 37.2159 26.067 37.2638 26.067C37.3117 26.067 37.3576 26.0865 37.3915 26.1212C37.4254 26.1558 37.4444 26.2028 37.4444 26.2519C37.4444 26.3009 37.4254 26.3479 37.3915 26.3826C37.3576 26.4173 37.3117 26.4368 37.2638 26.4368ZM37.2638 26.1286H37.1434V26.3751H37.2036V26.3135L37.2638 26.3751H37.324L37.2638 26.3135L37.324 26.2519V26.1903L37.2638 26.1286ZM37.2638 26.1903L37.324 26.2519H37.2036V26.1903H37.2638ZM9.63201 26.3751H9.09021V23.8485H9.63201V24.1567C9.63201 24.1567 10.1136 23.7869 10.3544 23.7869C10.8962 23.7869 11.1972 24.2183 11.1972 24.2183C11.1972 24.2183 11.438 23.7869 12.04 23.7869C12.8828 23.7869 13.0032 24.588 13.0032 24.588V26.3751H12.4614V24.7729C12.4614 24.7729 12.4614 24.2799 11.9196 24.2799C11.3778 24.2799 11.3176 24.7729 11.3176 24.7729V26.3751H10.7758V24.7729C10.7758 24.7729 10.7156 24.2799 10.2942 24.2799C9.63201 24.2799 9.63201 24.7729 9.63201 24.7729V26.3751ZM25.6452 23.7869C25.4044 23.7869 24.9228 24.1567 24.9228 24.1567V23.8485H24.4412V26.3751H24.983L24.9228 24.7729C24.9228 24.7729 24.983 24.2799 25.585 24.2799L25.8258 24.3415L26.0064 23.8485L25.6452 23.7869ZM33.11 23.7869C32.809 23.7869 32.3876 24.1567 32.3876 24.1567V23.8485H31.8458V26.3751H32.3876V24.7729C32.3876 24.7729 32.3876 24.2799 32.9896 24.2799L33.2906 24.3415L33.4712 23.8485L33.11 23.7869ZM14.6888 23.7869C13.9062 23.7869 13.4848 24.4648 13.4848 25.081C13.4848 25.6973 13.9664 26.4368 14.749 26.4368C15.1704 26.4368 15.5316 26.1286 15.5316 26.1286V26.3751H16.0132V23.8485H15.5316V24.1567C15.5316 24.1567 15.1704 23.7869 14.6888 23.7869ZM14.8092 24.2799C15.2306 24.2799 15.5918 24.6497 15.5918 25.1426C15.5918 25.574 15.2306 25.9438 14.8092 25.9438C14.3878 25.9438 14.0266 25.574 14.0266 25.1426C14.0266 24.6497 14.3878 24.2799 14.8092 24.2799ZM29.799 23.7869C29.0164 23.7869 28.595 24.4648 28.595 25.081C28.595 25.6973 29.0766 26.4368 29.8592 26.4368C30.2806 26.4368 30.6418 26.1286 30.6418 26.1286V26.3751H31.1836V23.8485H30.6418V24.1567C30.6418 24.1567 30.2806 23.7869 29.799 23.7869ZM29.9194 24.2799C30.3408 24.2799 30.702 24.6497 30.702 25.1426C30.702 25.574 30.3408 25.9438 29.9194 25.9438C29.498 25.9438 29.1368 25.574 29.1368 25.1426C29.1368 24.6497 29.498 24.2799 29.9194 24.2799ZM34.7956 23.7869C34.013 23.7869 33.5916 24.4648 33.5916 25.081C33.5916 25.6973 34.0732 26.4368 34.8558 26.4368C35.2772 26.4368 35.6384 26.1286 35.6384 26.1286V26.3751H36.1802V22.8625H35.6384V24.1567C35.6384 24.1567 35.2772 23.7869 34.7956 23.7869ZM34.916 24.2799C35.3374 24.2799 35.6986 24.6497 35.6986 25.1426C35.6986 25.574 35.3374 25.9438 34.916 25.9438C34.4946 25.9438 34.1334 25.574 34.1334 25.1426C34.1334 24.6497 34.4946 24.2799 34.916 24.2799ZM17.6386 26.4368C17.0968 26.4368 16.6152 26.1286 16.6152 26.1286L16.7958 25.7589C16.7958 25.7589 17.2774 25.9438 17.6386 25.9438C17.8192 25.9438 18.1804 25.8821 18.2406 25.6973C18.2406 25.4508 17.5784 25.3891 17.5784 25.3891C17.5784 25.3891 16.6754 25.3275 16.6754 24.588C16.6754 24.095 17.157 23.7869 17.6988 23.7869C18.06 23.7869 18.7222 24.095 18.7222 24.095L18.4212 24.4648L17.6988 24.2799C17.458 24.2799 17.2172 24.4032 17.2172 24.588C17.2172 25.081 18.7222 24.5264 18.7222 25.6356C18.7222 26.3135 18.1202 26.4368 17.6386 26.4368ZM19.6252 23.109V23.8485H19.1436V24.4032H19.6252V25.6356C19.6252 25.6356 19.565 26.4984 20.468 26.4984L21.1904 26.3135L21.0098 25.7589C21.0098 25.7589 20.769 25.9438 20.5884 25.9438C20.167 25.8821 20.167 25.6356 20.167 25.6356V24.4032H21.0098V23.8485H20.167V23.109H19.6252ZM22.7556 23.7869C21.8526 23.7869 21.4312 24.5264 21.4914 25.1426C21.4914 25.7589 21.8526 26.4984 22.7556 26.4984C23.177 26.4984 23.7188 26.1286 23.7188 26.1286L23.478 25.6973C23.478 25.6973 23.1168 26.0054 22.7556 26.0054C22.0934 26.0054 22.0332 25.3275 22.0332 25.3275H23.8392C23.8392 25.3275 24.0198 23.7869 22.7556 23.7869ZM22.6352 24.2799H22.6954C23.3576 24.2799 23.3576 24.8961 23.3576 24.8961H22.0332C22.0332 24.8961 22.0332 24.3415 22.6352 24.2799ZM28.0532 25.6973L28.294 26.1903C28.294 26.1903 27.9328 26.4368 27.5114 26.4368C26.6084 26.4368 26.1268 25.7589 26.1268 25.081C26.1268 24.095 26.9094 23.7869 27.4512 23.7869C27.9328 23.7869 28.3542 24.095 28.3542 24.095L28.0532 24.588C28.0532 24.588 27.9328 24.2799 27.4512 24.2799C26.9696 24.2799 26.6686 24.7113 26.6686 25.1426C26.6686 25.574 26.9696 25.9438 27.4512 25.9438C27.7522 25.9438 28.0532 25.6973 28.0532 25.6973Z" fill="white"/>
<path fill-rule="evenodd" clip-rule="evenodd" d="M37.625 17.1931V16.8234H37.5046L37.3842 17.0699L37.324 16.8234H37.2036V17.1931H37.2638V16.885L37.3842 17.1315H37.4444L37.5046 16.885V17.1931H37.625ZM37.023 17.1931V16.885H37.1434V16.8234H36.9026V16.885H36.9628V17.1931H37.023Z" fill="#F79F1A"/>
<path fill-rule="evenodd" clip-rule="evenodd" d="M37.625 12.14C37.625 14.6651 36.6451 17.0868 34.9008 18.8723C33.1566 20.6578 30.7908 21.6609 28.3241 21.6609C25.8573 21.6609 23.4916 20.6578 21.7474 18.8723C20.0031 17.0868 19.0232 14.6651 19.0232 12.14C19.0232 9.61485 20.0031 7.19316 21.7474 5.40764C23.4916 3.62211 25.8573 2.61902 28.3241 2.61902C30.7908 2.61902 33.1566 3.62211 34.9008 5.40764C36.6451 7.19316 37.625 9.61485 37.625 12.14Z" fill="#F79F1A"/>
<path fill-rule="evenodd" clip-rule="evenodd" d="M26.1268 12.14C26.1268 14.6651 25.1469 17.0868 23.4026 18.8723C21.6584 20.6578 19.2926 21.6609 16.8259 21.6609C14.3591 21.6609 11.9934 20.6578 10.2492 18.8723C8.50491 17.0868 7.52499 14.6651 7.52499 12.14C7.52499 9.61485 8.50491 7.19316 10.2492 5.40764C11.9934 3.62211 14.3591 2.61902 16.8259 2.61902C19.2926 2.61902 21.6584 3.62211 23.4026 5.40764C25.1469 7.19316 26.1268 9.61485 26.1268 12.14Z" fill="#EA001B"/>
<path fill-rule="evenodd" clip-rule="evenodd" d="M22.575 4.62183C21.4721 5.51611 20.5811 6.65412 19.9685 7.95072C19.356 9.24731 19.0378 10.6689 19.0378 12.1092C19.0378 13.5494 19.356 14.971 19.9685 16.2676C20.5811 17.5642 21.4721 18.7022 22.575 19.5965C23.6779 18.7022 24.5689 17.5642 25.1815 16.2676C25.794 14.971 26.1122 13.5494 26.1122 12.1092C26.1122 10.6689 25.794 9.24731 25.1815 7.95072C24.5689 6.65412 23.6779 5.51611 22.575 4.62183Z" fill="#FF5F01"/>
</g>
<defs>
<clipPath id="clip0_423_34046">
<rect width="45.15" height="29.025" fill="white"/>
</clipPath>
</defs>
</svg>
