<svg width="95" height="26" viewBox="0 0 95 26" fill="none" xmlns="http://www.w3.org/2000/svg">
<g clip-path="url(#clip0_769_135)">
<path d="M21.2642 8.18052H14.7053C14.7053 7.17369 14.5792 6.41857 14.3269 6.04101C13.9485 5.53759 12.9394 5.28588 11.1736 5.28588C9.53382 5.28588 8.39862 5.41174 7.76795 5.7893C7.13728 6.16686 7.01115 6.79613 7.01115 7.80296C7.01115 8.68393 7.26342 9.3132 7.76795 9.56491C8.14635 9.81662 8.65088 9.94247 9.15542 9.94247L10.4167 10.0683L15.7143 10.4459C17.8586 10.6976 19.4984 11.3269 20.5074 12.2078C21.2642 12.963 21.7687 13.9698 21.8949 15.1025C22.1553 17.4629 21.9843 19.8508 21.3904 22.1503C20.6335 23.9122 19.1199 25.0449 16.5973 25.5483L11.6781 25.8C8.14635 25.8 5.62368 25.5483 4.11008 25.1708C2.34422 24.6673 1.20902 23.5347 0.704484 21.8986C0.326084 21.0176 0.199951 19.5073 0.199951 17.4937H6.63275V17.9971C6.63275 19.1298 7.01115 19.7591 7.64182 20.1366C8.14635 20.3883 8.65088 20.5142 9.28155 20.5142H11.6781L13.9485 20.2625C14.5792 20.0108 14.9576 19.6332 15.0837 19.1298L15.3359 17.8713C15.3359 16.7386 14.8314 16.1093 14.0746 15.8576L9.65995 15.48L5.37142 14.9766C3.22715 14.5991 1.83968 13.8439 1.20902 12.5854C0.578351 11.5786 0.199951 9.94247 0.199951 7.80296C0.199951 6.16686 0.452218 4.90832 0.704484 3.90149C0.956751 2.89467 1.58742 2.2654 2.34422 1.76198C3.47942 0.881007 4.86688 0.503446 6.50662 0.377592C10.038 0.110429 13.5872 0.194748 17.1018 0.6293C19.8767 1.38442 21.2642 3.52393 21.2642 6.92198V8.18052Z" fill="white"/>
<path d="M49.6442 25.8V0H62.636C64.4018 0 65.7893 0.125854 66.6722 0.503415C68.8165 1.13268 70.3301 2.51707 70.9608 4.53073C71.3392 5.66341 71.5914 7.29951 71.5914 9.43902C71.5914 12.082 71.3392 13.9698 70.9608 15.1024C70.0778 17.3678 68.4381 18.6263 65.7893 19.0039L61.8792 19.1298H56.5816V25.8H49.6442ZM56.7077 13.2146H60.9962L63.5189 12.8371C63.8973 12.5854 64.1496 12.2078 64.2757 11.4527L64.4018 9.43902C64.4018 8.43219 64.4018 7.55122 64.1496 7.0478C63.8973 6.29268 63.2666 5.78927 62.3837 5.66341H56.5816V13.2146H56.7077Z" fill="white"/>
<path d="M86.4751 21.3951H77.1413L75.8799 25.8H68.6903L76.5106 0H86.9797L94.7999 25.8H87.7365L86.4751 21.3951ZM85.0877 16.361L81.8082 5.16L78.6549 16.361H85.0877Z" fill="white"/>
<path d="M40.0581 3.64979C42.833 3.64979 45.4818 4.90833 47.2477 7.04784L48.6352 3.77564C47.0845 2.35759 45.2176 1.32846 43.1891 0.773438C41.1606 0.218416 39.0287 0.15347 36.97 0.583976C34.9113 1.01448 32.985 1.92806 31.3505 3.24907C29.716 4.57009 28.4204 6.26055 27.5709 8.18052H24.6698L22.904 11.9561H26.688L26.5618 12.963L26.688 14.2215H24.796L23.0301 17.8713H27.5709C28.3636 19.6186 29.528 21.1728 30.9832 22.426C32.4385 23.6792 34.1497 24.6012 35.998 25.1281C37.8463 25.6551 39.7874 25.7742 41.6865 25.4773C43.5856 25.1804 45.3972 24.4746 46.9954 23.4088V18.8781C46.0608 19.945 44.8915 20.7817 43.5789 21.3228C42.2663 21.8639 40.8461 22.0948 39.4293 21.9973C38.0125 21.8998 36.6375 21.4766 35.4118 20.7608C34.1861 20.045 33.143 19.0561 32.364 17.8713H41.9501L43.716 14.2215H30.9765C30.8889 13.4689 30.8889 12.7087 30.9765 11.9561H44.8512L46.4909 8.18052H32.1117C33.7514 5.41174 36.7786 3.64979 40.0581 3.64979Z" fill="#FFBE00"/>
<path d="M40.0581 3.77564C42.833 3.77564 45.3557 5.03417 47.1216 7.04783L47.2477 7.17368V7.04783L48.7613 3.90149L48.8874 3.77564H48.7613C47.2242 2.27521 45.341 1.17482 43.2774 0.571348C41.2139 -0.0321236 39.0333 -0.120175 36.9276 0.314944C34.8219 0.750064 32.8557 1.69501 31.2021 3.0666C29.5485 4.43819 28.2582 6.19436 27.4448 8.18051L27.5709 8.05466H24.5437V8.18051L22.7778 11.8303V12.082H26.688L26.5618 11.9561L26.4357 12.963L26.5618 14.2215L26.688 14.0956H24.6698L22.904 17.8712V17.9971H27.697H27.5709C28.3636 19.7444 29.528 21.2987 30.9832 22.5518C32.4385 23.805 34.1497 24.7271 35.998 25.254C37.8463 25.7809 39.7874 25.9 41.6865 25.6031C43.5856 25.3062 45.3972 24.6004 46.9954 23.5347H47.1216V18.6264L46.8693 18.8781C45.946 19.9197 44.7949 20.7354 43.505 21.2619C42.215 21.7884 40.821 22.0116 39.4308 21.9142C38.0405 21.8169 36.6914 21.4016 35.4878 20.7005C34.2842 19.9994 33.2585 19.0313 32.4901 17.8712V17.9971H42.0762L43.8421 14.2215L43.9682 14.0956H30.9765L31.1026 14.2215C31.0127 13.469 31.0127 12.7086 31.1026 11.9561L30.9765 12.082H44.8512V11.9561L46.617 8.30637L46.7432 8.05466H32.1117L32.2378 8.30637C33.8776 5.53759 36.9048 3.77564 40.0581 3.77564ZM32.1117 8.30637H46.4909L46.3648 8.18051L44.725 11.8303H30.9765V11.9561L30.8504 12.8371L30.9765 14.2215V14.3473H43.8421L43.716 14.2215L41.9501 17.8712L42.0762 17.7454H32.364L32.4901 17.9971C33.2691 19.1819 34.3123 20.1709 35.5379 20.8867C36.7636 21.6024 38.1386 22.0256 39.5554 22.1231C40.9723 22.2206 42.3925 21.9898 43.705 21.4487C45.0176 20.9075 46.1869 20.0708 47.1216 19.0039L46.9954 18.8781V23.5347V23.4088C44.8512 24.7932 42.3285 25.5483 39.8058 25.5483C34.5082 25.5483 29.8413 22.5278 27.8232 17.8712V17.7454H23.1562L23.2824 17.9971L25.0482 14.2215L24.9221 14.3473H26.9402V14.2215C26.8788 13.4676 26.8788 12.71 26.9402 11.9561V11.8303H23.0301L23.1562 11.9561L24.796 8.30637H27.8232C28.7061 5.91515 30.3458 4.02734 32.4901 2.5171C37.5354 -0.880949 44.3466 -0.251681 48.7613 3.90149V3.77564L47.2477 6.92198H47.3738C46.4152 5.76589 45.1907 4.85804 43.8048 4.27571C42.4188 3.69338 40.9123 3.45382 39.4136 3.5774C37.9149 3.70099 36.4683 4.18407 35.1969 4.98553C33.9256 5.78698 32.8671 6.88308 32.1117 8.18051V8.30637Z" fill="white"/>
</g>
<defs>
<clipPath id="clip0_423_34040">
<rect width="94.6" height="25.8" fill="white" transform="translate(0.199951)"/>
</clipPath>
</defs>
</svg>
