<svg width="40" height="25" viewBox="0 0 40 25" fill="none" xmlns="http://www.w3.org/2000/svg">
<g clip-path="url(#clip0_423_34035)">
<path d="M37.8036 0H2.2713C1.09972 0 0.149963 0.940107 0.149963 2.09979V22.6252C0.149963 23.7849 1.09972 24.725 2.2713 24.725H37.8036C38.9752 24.725 39.925 23.7849 39.925 22.6252V2.09979C39.925 0.940107 38.9752 0 37.8036 0Z" fill="#0E4595"/>
<path fill-rule="evenodd" clip-rule="evenodd" d="M14.8932 17.5332L16.6964 7.24428H19.5071L17.757 17.5332H14.8932ZM27.9394 7.50675C27.4091 7.29678 26.5075 7.0343 25.3938 7.0343C22.6361 7.0343 20.6739 8.45166 20.6208 10.4465C20.6208 11.9163 22.0527 12.7562 23.1134 13.2287C24.2271 13.7536 24.5983 14.0686 24.5983 14.541C24.5983 15.2235 23.6968 15.5384 22.9013 15.5384C21.7345 15.5384 21.1512 15.381 20.2496 14.961L19.8784 14.8035L19.4541 17.1133C20.1435 17.4283 21.3633 17.6382 22.6361 17.6907C25.606 17.6907 27.5152 16.2734 27.5682 14.1736C27.5682 12.9662 26.8257 12.0738 25.1817 11.3389C24.1741 10.8664 23.5907 10.5514 23.5907 10.079C23.5907 9.65904 24.068 9.18658 25.1817 9.18658C26.1363 9.18658 26.7727 9.39656 27.303 9.60654L27.5682 9.71153L27.9394 7.50675ZM35.258 7.24428H33.0306C32.3942 7.24428 31.8639 7.45426 31.5457 8.13669L27.3561 17.5332H30.3259L30.9093 16.0109H34.5686L34.8868 17.5332H37.5385L35.258 7.24428ZM31.7578 13.9111L32.8715 11.0239L33.2958 10.0265L33.4549 10.9189L34.0913 13.9111H31.7578ZM12.5067 7.24428L9.74901 14.2786L9.43081 12.8612C8.90048 11.2339 7.30948 9.44906 5.50635 8.55665L8.05195 17.5332H11.0218L15.4766 7.24428H12.5067Z" fill="white"/>
<path fill-rule="evenodd" clip-rule="evenodd" d="M7.15034 7.24426H2.58947L2.53644 7.50674C6.08967 8.34665 8.42314 10.3939 9.43077 12.8612L8.42314 8.13667C8.26404 7.50674 7.78674 7.29676 7.15034 7.24426Z" fill="#F2AE14"/>
</g>
<defs>
<clipPath id="clip0_423_34035">
<rect width="39.775" height="24.725" fill="white" transform="translate(0.149963)"/>
</clipPath>
</defs>
</svg>
